<svg width="386" height="236" viewBox="0 0 386 236" fill="none" xmlns="http://www.w3.org/2000/svg">
  <g clip-path="url(#clip0)">
    <path opacity="0.1"
      d="M386 140.422C386.021 151.612 382.972 162.593 377.187 172.164C377.187 183.87 371.741 194.48 362.908 202.212C360.696 204.145 358.316 205.874 355.795 207.379C355.694 207.443 355.589 207.504 355.485 207.565C355.296 207.676 355.107 207.788 354.914 207.903L354.735 208.008C346.371 212.676 336.945 215.099 327.371 215.04H73.276C71.2515 215.04 69.2451 214.959 67.2566 214.797C60.19 214.239 53.246 212.628 46.6542 210.016C45.3675 209.506 44.1056 208.959 42.8684 208.373C42.279 208.095 41.6953 207.81 41.1172 207.517C40.7562 207.335 40.3952 207.145 40.0375 206.956C35.8806 204.761 31.9808 202.108 28.4103 199.048C16.9382 189.164 9.82558 175.511 9.82558 160.432C3.39026 150.501 -0.0235767 138.91 0.000122559 127.07C0.000122559 93.5493 26.7367 66.3751 59.7221 66.3751C60.7344 66.3751 61.7466 66.4055 62.7589 66.4596C62.9039 66.4596 63.0457 66.4596 63.1908 66.4799C68.7513 56.9823 76.1845 48.2555 85.1226 40.5736C109.497 19.6444 145.121 6.45117 184.804 6.45117C218.147 6.45117 248.626 15.7662 271.972 31.1571C280.818 26.1459 290.81 23.5189 300.972 23.5327C333.951 23.5327 360.694 50.7069 360.694 84.2275C360.689 86.3484 360.577 88.4678 360.357 90.5772C368.306 96.2163 374.786 103.689 379.249 112.364C383.712 121.039 386.027 130.662 386 140.422Z"
      fill="#0EA65D" />
    <g opacity="0.2">
      <path opacity="0.2"
        d="M46.6875 209.56C46.6875 209.715 46.6706 209.867 46.6538 210.016C45.3671 209.507 44.1052 208.959 42.868 208.373C42.2071 208.286 41.5924 207.985 41.1168 207.517C40.7558 207.335 40.3948 207.145 40.0371 206.956C40.1181 206.786 40.2094 206.621 40.3104 206.462C41.0055 205.36 42.0616 204.67 43.2257 204.708C44.3897 204.745 45.3986 205.499 46.0228 206.638C46.5002 207.535 46.7297 208.544 46.6875 209.56Z"
        fill="#3F3D56" />
      <path opacity="0.2"
        d="M46.8697 203.771C46.8467 204.785 46.5544 205.775 46.0228 206.638C45.3277 207.737 44.2716 208.427 43.1076 208.39L42.868 208.373C42.2071 208.286 41.5924 207.985 41.1168 207.517C40.7943 207.21 40.5222 206.854 40.3104 206.462C39.8448 205.562 39.617 204.558 39.6489 203.544C39.6808 202.531 39.9713 201.543 40.4926 200.674C41.1877 199.572 42.2438 198.882 43.4079 198.919C44.5719 198.956 45.5808 199.71 46.205 200.85C46.6824 201.747 46.9119 202.755 46.8697 203.771Z"
        fill="#3F3D56" />
      <path opacity="0.2"
        d="M47.0533 197.993C47.1358 195.378 45.5871 193.207 43.5941 193.144C41.6012 193.081 39.9188 195.149 39.8363 197.764C39.7539 200.379 41.3026 202.55 43.2955 202.613C45.2885 202.676 46.9709 200.608 47.0533 197.993Z"
        fill="#3F3D56" />
      <path opacity="0.2"
        d="M47.234 192.204C47.3165 189.589 45.7677 187.418 43.7748 187.355C41.7819 187.292 40.0994 189.361 40.017 191.976C39.9345 194.59 41.4833 196.761 43.4762 196.824C45.4691 196.888 47.1515 194.819 47.234 192.204Z"
        fill="#3F3D56" />
      <path opacity="0.2"
        d="M47.445 186.034C47.5233 183.417 45.9704 181.248 43.9764 181.188C41.9825 181.128 40.3027 183.2 40.2243 185.817C40.146 188.433 41.6989 190.602 43.6928 190.662C45.6867 190.722 47.3666 188.65 47.445 186.034Z"
        fill="#3F3D56" />
      <path opacity="0.2"
        d="M31.5379 146.251C31.0627 145.606 30.6342 144.929 30.2557 144.222L39.791 142.961L29.5269 142.715C28.6109 140.537 28.1478 138.196 28.1658 135.833C28.1838 133.471 28.6825 131.136 29.6315 128.974L43.1685 136.564L30.7686 126.81C32.0195 124.782 33.6741 123.035 35.6291 121.677C37.5841 120.32 39.7975 119.38 42.131 118.918C44.4645 118.456 46.8681 118.481 49.1915 118.992C51.5149 119.502 53.7084 120.487 55.6348 121.885C57.5613 123.284 59.1793 125.065 60.3879 127.118C61.5965 129.171 62.3697 131.452 62.6592 133.817C62.9487 136.183 62.7483 138.584 62.0705 140.868C61.3927 143.153 60.2521 145.273 58.7198 147.096C59.4582 148.1 60.086 149.18 60.5925 150.319L48.0778 156.34L61.3483 152.341C62.184 155.104 62.3187 158.032 61.7401 160.861C61.1616 163.689 59.888 166.329 58.0349 168.54C59.9616 171.159 61.1137 174.269 61.3596 177.514C61.6055 180.759 60.9351 184.007 59.4253 186.888C57.9154 189.769 55.627 192.166 52.8216 193.805C50.0162 195.444 46.8072 196.259 43.5615 196.156C40.3157 196.054 37.1643 195.038 34.4675 193.225C31.7708 191.412 29.6376 188.876 28.3118 185.905C26.9861 182.935 26.5213 179.65 26.9707 176.427C27.42 173.205 28.7654 170.173 30.8529 167.681C28.5511 164.55 27.3662 160.735 27.4886 156.849C27.611 152.962 29.0336 149.23 31.5278 146.251H31.5379Z"
        fill="#0EA65D" />
      <path opacity="0.1"
        d="M62.0838 157.943C61.9642 161.832 60.5374 165.565 58.0349 168.54C59.9616 171.159 61.1137 174.269 61.3596 177.514C61.6055 180.759 60.9351 184.007 59.4253 186.888C57.9154 189.769 55.627 192.166 52.8216 193.805C50.0162 195.444 46.8072 196.259 43.5615 196.156C40.3157 196.054 37.1643 195.038 34.4675 193.225C31.7708 191.412 29.6376 188.876 28.3118 185.905C26.9861 182.935 26.5213 179.65 26.9707 176.427C27.42 173.205 28.7654 170.173 30.8529 167.681C28.6361 164.661 62.1446 155.996 62.0838 157.943Z"
        fill="black" />
    </g>
    <path
      d="M323.241 46.7983V208.816C323.241 210.466 322.587 212.05 321.422 213.217C320.257 214.384 318.677 215.04 317.03 215.04H68.9706C68.3906 215.041 67.8134 214.959 67.2565 214.797C65.9598 214.426 64.8192 213.641 64.0075 212.561C63.1959 211.482 62.7575 210.167 62.7588 208.816V136.513C62.7588 136.145 62.7588 135.78 62.7588 135.414V66.4596C62.9039 66.4596 63.0456 66.4596 63.1907 66.4799C68.7512 56.9823 76.1844 48.2556 85.1225 40.5736H317.03C318.677 40.5736 320.257 41.2294 321.422 42.3968C322.587 43.5641 323.241 45.1474 323.241 46.7983Z"
      fill="white" />
    <path
      d="M280.734 61.6145H246.362C243.011 61.6145 240.295 64.3363 240.295 67.6938C240.295 71.0513 243.011 73.7731 246.362 73.7731H280.734C284.084 73.7731 286.801 71.0513 286.801 67.6938C286.801 64.3363 284.084 61.6145 280.734 61.6145Z"
      fill="#3F3D56" />
    <path opacity="0.1"
      d="M279.729 63.6465H247.364C245.133 63.6465 243.325 65.4578 243.325 67.6921C243.325 69.9264 245.133 71.7376 247.364 71.7376H279.729C281.959 71.7376 283.768 69.9264 283.768 67.6921C283.768 65.4578 281.959 63.6465 279.729 63.6465Z"
      fill="black" />
    <path
      d="M279.162 64.0895H271.745C269.761 64.0895 268.152 65.7017 268.152 67.6904V67.6938C268.152 69.6825 269.761 71.2947 271.745 71.2947H279.162C281.146 71.2947 282.755 69.6825 282.755 67.6938V67.6904C282.755 65.7017 281.146 64.0895 279.162 64.0895Z"
      fill="#0EA65D" />
    <path
      d="M275.342 69.9456C276.583 69.9456 277.59 68.9375 277.59 67.6938C277.59 66.4501 276.583 65.442 275.342 65.442C274.101 65.442 273.095 66.4501 273.095 67.6938C273.095 68.9375 274.101 69.9456 275.342 69.9456Z"
      fill="white" />
    <path
      d="M280.734 141.764H246.362C243.011 141.764 240.295 144.486 240.295 147.844C240.295 151.201 243.011 153.923 246.362 153.923H280.734C284.084 153.923 286.801 151.201 286.801 147.844C286.801 144.486 284.084 141.764 280.734 141.764Z"
      fill="#3F3D56" />
    <path opacity="0.1"
      d="M279.729 143.796H247.364C245.133 143.796 243.325 145.608 243.325 147.842C243.325 150.076 245.133 151.887 247.364 151.887H279.729C281.959 151.887 283.768 150.076 283.768 147.842C283.768 145.608 281.959 143.796 279.729 143.796Z"
      fill="black" />
    <path
      d="M279.162 144.239H271.745C269.761 144.239 268.152 145.851 268.152 147.84V147.844C268.152 149.832 269.761 151.444 271.745 151.444H279.162C281.146 151.444 282.755 149.832 282.755 147.844V147.84C282.755 145.851 281.146 144.239 279.162 144.239Z"
      fill="#0EA65D" />
    <path
      d="M275.342 150.095C276.583 150.095 277.59 149.087 277.59 147.844C277.59 146.6 276.583 145.592 275.342 145.592C274.101 145.592 273.095 146.6 273.095 147.844C273.095 149.087 274.101 150.095 275.342 150.095Z"
      fill="white" />
    <path
      d="M280.734 181.838H246.362C243.011 181.838 240.295 184.559 240.295 187.917C240.295 191.274 243.011 193.996 246.362 193.996H280.734C284.084 193.996 286.801 191.274 286.801 187.917C286.801 184.559 284.084 181.838 280.734 181.838Z"
      fill="#3F3D56" />
    <path opacity="0.1"
      d="M279.729 183.873H247.364C245.133 183.873 243.325 185.684 243.325 187.919C243.325 190.153 245.133 191.964 247.364 191.964H279.729C281.959 191.964 283.768 190.153 283.768 187.919C283.768 185.684 281.959 183.873 279.729 183.873Z"
      fill="black" />
    <path
      d="M279.162 184.316H271.745C269.761 184.316 268.152 185.928 268.152 187.917V187.92C268.152 189.909 269.761 191.521 271.745 191.521H279.162C281.146 191.521 282.755 189.909 282.755 187.92V187.917C282.755 185.928 281.146 184.316 279.162 184.316Z"
      fill="#0EA65D" />
    <path
      d="M275.342 190.169C276.583 190.169 277.59 189.161 277.59 187.917C277.59 186.673 276.583 185.665 275.342 185.665C274.101 185.665 273.095 186.673 273.095 187.917C273.095 189.161 274.101 190.169 275.342 190.169Z"
      fill="white" />
    <path
      d="M122.791 53.9597H102.793C100.808 53.9597 99.1992 55.5718 99.1992 57.5606V57.564C99.1992 59.5527 100.808 61.1649 102.793 61.1649H122.791C124.776 61.1649 126.385 59.5527 126.385 57.564V57.5606C126.385 55.5718 124.776 53.9597 122.791 53.9597Z"
      fill="#0EA65D" />
    <path
      d="M171.095 64.0895H102.793C100.808 64.0895 99.1992 65.7017 99.1992 67.6904V67.6938C99.1992 69.6825 100.808 71.2947 102.793 71.2947H171.095C173.08 71.2947 174.689 69.6825 174.689 67.6938V67.6904C174.689 65.7017 173.08 64.0895 171.095 64.0895Z"
      fill="#0EA65D" />
    <path
      d="M171.095 74.2226H102.793C100.808 74.2226 99.1992 75.8348 99.1992 77.8235V77.8269C99.1992 79.8156 100.808 81.4278 102.793 81.4278H171.095C173.08 81.4278 174.689 79.8156 174.689 77.8269V77.8235C174.689 75.8348 173.08 74.2226 171.095 74.2226Z"
      fill="#0EA65D" />
    <g opacity="0.5">
      <path opacity="0.5"
        d="M122.791 94.0328H102.793C100.808 94.0328 99.1992 95.645 99.1992 97.6337V97.6371C99.1992 99.6258 100.808 101.238 102.793 101.238H122.791C124.776 101.238 126.385 99.6258 126.385 97.6371V97.6337C126.385 95.645 124.776 94.0328 122.791 94.0328Z"
        fill="#0EA65D" />
      <path opacity="0.5"
        d="M151.954 104.166H102.793C100.808 104.166 99.1992 105.778 99.1992 107.767V107.77C99.1992 109.759 100.808 111.371 102.793 111.371H151.954C153.938 111.371 155.547 109.759 155.547 107.77V107.767C155.547 105.778 153.938 104.166 151.954 104.166Z"
        fill="#0EA65D" />
      <path opacity="0.5"
        d="M171.095 114.296H102.793C100.808 114.296 99.1992 115.908 99.1992 117.897V117.9C99.1992 119.889 100.808 121.501 102.793 121.501H171.095C173.08 121.501 174.689 119.889 174.689 117.9V117.897C174.689 115.908 173.08 114.296 171.095 114.296Z"
        fill="#0EA65D" />
    </g>
    <path
      d="M122.791 134.109H102.793C100.808 134.109 99.1992 135.722 99.1992 137.71V137.714C99.1992 139.702 100.808 141.315 102.793 141.315H122.791C124.776 141.315 126.385 139.702 126.385 137.714V137.71C126.385 135.722 124.776 134.109 122.791 134.109Z"
      fill="#0EA65D" />
    <path
      d="M171.095 144.239H102.793C100.808 144.239 99.1992 145.851 99.1992 147.84V147.844C99.1992 149.832 100.808 151.444 102.793 151.444H171.095C173.08 151.444 174.689 149.832 174.689 147.844V147.84C174.689 145.851 173.08 144.239 171.095 144.239Z"
      fill="#0EA65D" />
    <path
      d="M142.506 154.373H102.793C100.808 154.373 99.1992 155.985 99.1992 157.974V157.977C99.1992 159.966 100.808 161.578 102.793 161.578H142.506C144.491 161.578 146.1 159.966 146.1 157.977V157.974C146.1 155.985 144.491 154.373 142.506 154.373Z"
      fill="#0EA65D" />
    <path
      d="M122.791 174.183H102.793C100.808 174.183 99.1992 175.795 99.1992 177.784V177.787C99.1992 179.776 100.808 181.388 102.793 181.388H122.791C124.776 181.388 126.385 179.776 126.385 177.787V177.784C126.385 175.795 124.776 174.183 122.791 174.183Z"
      fill="#0EA65D" />
    <path
      d="M171.095 184.316H102.793C100.808 184.316 99.1992 185.928 99.1992 187.917V187.92C99.1992 189.909 100.808 191.521 102.793 191.521H171.095C173.08 191.521 174.689 189.909 174.689 187.92V187.917C174.689 185.928 173.08 184.316 171.095 184.316Z"
      fill="#0EA65D" />
    <path
      d="M156.34 194.446H102.793C100.808 194.446 99.1992 196.058 99.1992 198.047V198.05C99.1992 200.039 100.808 201.651 102.793 201.651H156.34C158.325 201.651 159.933 200.039 159.933 198.05V198.047C159.933 196.058 158.325 194.446 156.34 194.446Z"
      fill="#0EA65D" />
    <path opacity="0.7" d="M87.7271 87.9062H307.72" stroke="#3F3D56" stroke-miterlimit="10" stroke-linecap="round" />
    <path opacity="0.7" d="M87.7271 128.649H307.72" stroke="#3F3D56" stroke-miterlimit="10" stroke-linecap="round" />
    <path opacity="0.7" d="M87.7271 169.392H307.72" stroke="#3F3D56" stroke-miterlimit="10" stroke-linecap="round" />
    <path opacity="0.7" d="M87.7271 211.149H307.72" stroke="#3F3D56" stroke-miterlimit="10" stroke-linecap="round" />
    <path opacity="0.1"
      d="M268.243 236C295.763 236 318.072 234.411 318.072 232.45C318.072 230.489 295.763 228.9 268.243 228.9C240.723 228.9 218.414 230.489 218.414 232.45C218.414 234.411 240.723 236 268.243 236Z"
      fill="#0EA65D" />
    <path opacity="0.1"
      d="M23.7943 55.0483C27.825 55.0483 31.0926 51.7739 31.0926 47.7348C31.0926 43.6958 27.825 40.4214 23.7943 40.4214C19.7636 40.4214 16.4961 43.6958 16.4961 47.7348C16.4961 51.7739 19.7636 55.0483 23.7943 55.0483Z"
      fill="#0EA65D" />
    <path opacity="0.1"
      d="M54.2118 14.6268C58.2425 14.6268 61.51 11.3525 61.51 7.3134C61.51 3.27432 58.2425 0 54.2118 0C50.1811 0 46.9136 3.27432 46.9136 7.3134C46.9136 11.3525 50.1811 14.6268 54.2118 14.6268Z"
      fill="#0EA65D" />
    <path opacity="0.1"
      d="M51.739 47.3392C58.4941 47.3392 63.9702 41.8518 63.9702 35.0826C63.9702 28.3135 58.4941 22.826 51.739 22.826C44.9839 22.826 39.5078 28.3135 39.5078 35.0826C39.5078 41.8518 44.9839 47.3392 51.739 47.3392Z"
      fill="#0EA65D" />
    <path
      d="M280.734 101.688H246.362C243.011 101.688 240.295 104.409 240.295 107.767C240.295 111.124 243.011 113.846 246.362 113.846H280.734C284.084 113.846 286.801 111.124 286.801 107.767C286.801 104.409 284.084 101.688 280.734 101.688Z"
      fill="#3F3D56" />
    <path opacity="0.1"
      d="M279.729 103.723H247.364C245.133 103.723 243.325 105.534 243.325 107.769C243.325 110.003 245.133 111.814 247.364 111.814H279.729C281.959 111.814 283.768 110.003 283.768 107.769C283.768 105.534 281.959 103.723 279.729 103.723Z"
      fill="black" />
    <path
      d="M244.682 223.493C245.211 223.415 245.741 223.307 246.261 223.186C246.193 223.706 246.042 224.213 245.815 224.687C245.299 225.667 244.29 226.259 243.362 226.861C243.234 226.741 243.069 226.669 242.895 226.658C242.72 226.646 242.547 226.695 242.404 226.797C241.287 227.473 240.396 228.426 239.212 229.008C238.797 229.211 238.365 229.373 237.96 229.6C236.978 230.199 236.165 231.041 235.598 232.044C235.261 232.568 234.988 233.258 235.318 233.779C235.445 233.955 235.609 234.101 235.797 234.208C236.278 234.544 236.855 234.716 237.441 234.698C237.778 234.668 238.115 234.539 238.483 234.482C238.946 234.401 239.418 234.441 239.884 234.401C240.559 234.313 241.221 234.142 241.854 233.89L244.172 233.079C244.827 232.867 245.464 232.604 246.078 232.294C246.446 232.095 246.794 231.862 247.168 231.679C247.59 231.492 248.025 231.338 248.471 231.219L249.787 230.834C249.976 230.761 250.179 230.734 250.38 230.756C250.563 230.79 250.718 230.905 250.903 230.952C251.187 231.002 251.478 230.974 251.747 230.871L253.272 230.438C253.594 230.365 253.901 230.237 254.18 230.059C254.878 229.562 255.003 228.575 255 227.713C254.996 226.407 254.849 225.105 254.561 223.831C254.366 223.911 254.195 224.04 254.065 224.207C253.909 223.987 253.741 223.776 253.562 223.574C252.86 222.756 252.341 221.795 252.041 220.758C252.591 220.348 253.051 219.827 253.39 219.23C252.584 216.149 251.757 213.022 250.117 210.303C249.581 209.418 248.967 208.586 248.43 207.713C246.834 205.178 246.507 201.966 244.682 199.599C244.508 199.359 244.415 199.07 244.415 198.774C244.415 198.477 244.508 198.189 244.682 197.949C244.891 197.671 245.228 197.411 245.164 197.066C245.117 196.819 244.86 196.593 244.958 196.363C245.005 196.251 245.12 196.191 245.208 196.109C245.518 195.819 245.478 195.328 245.508 194.902C245.576 193.827 246.213 192.874 246.827 192.008C246.952 191.801 247.117 191.622 247.313 191.481C247.479 191.379 247.674 191.332 247.84 191.23C248.42 190.862 248.38 190.006 248.656 189.371C249.021 188.532 249.938 188.11 250.539 187.43C251.305 186.564 251.501 185.361 252.307 184.607C252.39 184.527 252.479 184.455 252.574 184.39C252.224 185.673 252.064 187 252.098 188.329C252.02 192.904 253.154 197.638 252.624 202.192C252.206 205.796 254.402 209.39 257.517 211.193C258.736 211.844 260.011 212.386 261.326 212.812C263.276 213.512 265.22 214.232 267.133 215.037C268.483 215.605 269.814 216.215 271.128 216.866C272.749 217.66 274.326 218.541 275.852 219.507C277.728 220.714 279.607 221.938 280.94 223.74C281.755 223.699 282.539 223.41 283.187 222.912C283.7 223.317 284.321 223.625 284.803 224.075C285.47 224.77 285.916 225.648 286.085 226.597H285.883C285.907 227.047 285.927 227.496 285.951 227.95C285.968 228.065 285.951 228.183 285.9 228.288C285.851 228.355 285.789 228.411 285.718 228.453L284.678 229.16C283.923 229.671 283.089 230.316 283.049 231.233C283.028 231.499 283.109 231.764 283.275 231.973C283.529 232.21 283.854 232.357 284.199 232.392C286.008 232.774 287.86 233.146 289.692 232.9C290.563 232.781 291.464 232.494 292.031 231.818C292.55 231.202 292.706 230.367 292.847 229.572C293.073 228.22 293.262 226.837 293.411 225.464C293.456 224.531 293.645 223.611 293.971 222.736C293.996 222.66 294.047 222.595 294.116 222.553C294.193 222.519 294.285 222.553 294.366 222.519C294.447 222.486 294.501 222.361 294.528 222.259C294.862 220.924 295.024 219.551 295.01 218.175C295.026 217.817 294.972 217.46 294.851 217.123C294.709 216.841 294.505 216.595 294.255 216.402C294.005 216.209 293.716 216.074 293.407 216.007C292.792 215.882 292.168 215.807 291.541 215.784C291.018 215.734 290.5 215.639 289.993 215.5C289.787 215.422 289.567 215.393 289.348 215.416C289.24 215.43 289.14 215.484 289.068 215.567C288.996 215.65 288.957 215.756 288.957 215.865C288.969 215.943 288.996 216.018 289.038 216.085L288.511 215.98C288.086 215.903 287.499 215.717 286.862 215.561C286.862 215.453 286.868 215.34 286.882 215.223C286.883 215.102 286.85 214.983 286.787 214.88C286.724 214.777 286.633 214.695 286.524 214.641L277.61 209.867L275.943 208.975C272.292 207.017 268.52 205.208 264.859 203.25C264.616 203.325 264.413 203.044 264.343 202.794C264.272 202.544 264.221 202.246 263.988 202.135C263.874 202.08 263.722 202.084 263.651 201.986C263.591 201.898 263.568 201.79 263.587 201.685C263.705 199.903 264.977 198.26 264.724 196.495C264.616 195.741 264.228 194.997 264.386 194.257C264.505 193.746 264.869 193.33 265.061 192.843C265.5 191.754 265.061 190.446 265.54 189.381C265.86 188.681 266.077 187.938 266.185 187.176C266.411 185.658 266.866 184.183 267.535 182.801C267.858 182.104 268.28 181.459 268.79 180.884C269.056 180.593 269.357 180.333 269.613 180.032C270.389 179.102 270.676 177.865 270.895 176.651C271.293 174.484 271.57 172.235 271.071 170.085C270.902 169.354 270.645 168.628 270.656 167.877C270.656 166.978 271.017 165.946 270.581 165.226C271.03 164.865 271.329 164.351 271.422 163.782C271.428 163.578 271.468 163.376 271.54 163.184C271.688 162.975 271.88 162.802 272.103 162.677C272.451 162.411 272.718 162.051 272.871 161.641C273.025 161.23 273.061 160.784 272.974 160.354C273.436 160.564 273.922 160.094 274.141 159.63C274.36 159.167 274.526 158.616 274.995 158.406C275.312 158.271 275.67 158.352 276.007 158.264C276.543 158.126 276.871 157.588 277.249 157.192C278.018 156.361 279.108 155.931 280.117 155.421C283.106 153.896 285.542 151.485 287.928 149.112C289.172 147.954 290.302 146.679 291.302 145.304C291.568 144.909 291.811 144.5 292.041 144.08L292.102 144.05L292.122 144.124C292.159 144.273 292.203 144.422 292.247 144.567C292.355 144.905 292.476 145.267 292.584 145.612C292.948 146.626 293.343 147.708 294.086 148.476C294.313 148.71 294.572 148.911 294.855 149.074C295.468 149.405 296.142 149.607 296.835 149.669C297.099 149.703 297.365 149.724 297.632 149.737C297.898 149.751 298.165 149.761 298.428 149.768L303.887 149.913C302.011 147.188 301.863 143.644 301.988 140.327C302.302 131.807 303.958 123.209 302.42 114.823C302.234 113.809 301.988 112.795 301.37 111.98C300.56 110.915 299.231 110.401 297.935 110.1C296.64 109.799 295.293 109.654 294.082 109.109C293.07 108.646 292.139 107.902 291.045 107.659C290.24 107.524 289.417 107.537 288.616 107.699C287.631 107.846 286.651 108.02 285.677 108.22L285.441 108.271H285.451L285.289 108.308H285.245L285.1 108.342H285.046L284.911 108.379L284.851 108.396L284.726 108.437L284.655 108.46L284.54 108.497L284.466 108.528L284.358 108.568L284.277 108.602L284.179 108.646L284.098 108.687L284.007 108.731L283.926 108.778L283.842 108.825L283.761 108.879L283.683 108.93L283.602 108.988L283.535 109.042L283.457 109.109L283.393 109.167C283.366 109.191 283.342 109.217 283.319 109.245L283.261 109.302C283.235 109.332 283.21 109.364 283.187 109.397C283.187 109.414 283.157 109.431 283.143 109.451C283.13 109.471 283.083 109.539 283.052 109.589V109.61C282.976 109.737 282.914 109.872 282.867 110.012C282.843 110.083 282.819 110.154 282.802 110.225C282.768 110.37 282.743 110.517 282.728 110.665C282.728 110.739 282.728 110.817 282.711 110.891C282.711 111.04 282.711 111.192 282.711 111.341C282.725 111.595 282.753 111.848 282.796 112.098C281.599 112.807 280.601 113.808 279.895 115.008C279.19 116.208 278.799 117.568 278.76 118.96C278.721 120.353 279.034 121.732 279.672 122.97C280.309 124.208 281.249 125.264 282.404 126.039C282.421 126.172 282.43 126.307 282.431 126.441V126.529C282.412 127.007 282.363 127.484 282.283 127.956C280.949 127.696 279.592 127.575 278.234 127.594C277.424 127.594 276.608 127.668 275.791 127.733C274.916 126.675 274.1 125.568 273.348 124.419L271.546 121.772C270.928 120.907 270.364 120.003 269.859 119.067C269.417 118.208 269.073 117.295 268.58 116.463C267.568 114.749 265.915 113.292 265.709 111.307L265.233 111.405C264.974 110.979 264.646 110.529 264.525 110.283C263.873 108.874 263.371 107.401 263.027 105.887C262.861 105.103 262.736 104.284 262.308 103.608C262.016 103.186 261.662 102.81 261.259 102.492C260.608 101.879 259.845 101.396 259.011 101.072C258.639 100.937 258.244 100.879 257.849 100.902C257.454 100.926 257.067 101.029 256.714 101.208C256.604 101.157 256.491 101.111 256.376 101.072C255.958 100.913 255.509 100.857 255.065 100.909C254.621 100.961 254.196 101.119 253.825 101.37C253.117 101.914 252.813 102.847 252.705 103.737C252.519 104.967 252.729 106.225 253.306 107.327C253.981 108.538 255.189 109.356 256.187 110.316C256.882 110.991 257.491 111.75 257.999 112.575C258.156 114.401 258.11 116.24 257.861 118.056C257.733 118.834 257.523 119.598 257.463 120.382C257.216 123.215 258.688 126.049 258.161 128.835C258.074 129.254 258.12 129.689 258.291 130.081C258.462 130.473 258.75 130.802 259.116 131.023C259.872 131.432 260.756 131.486 261.586 131.699C263.216 132.118 264.623 133.163 266.269 133.552C267.028 133.734 267.818 133.768 268.574 133.971L268.692 134.008C268.11 134.668 267.694 135.459 267.481 136.314C267.143 137.734 267.46 139.252 267.123 140.672C266.846 141.842 266.151 142.863 265.466 143.854C264.148 145.765 262.828 147.681 261.505 149.602C260.621 150.949 259.646 152.233 258.586 153.446C256.768 155.438 253.63 157.017 252.705 159.411C252.685 159.353 252.658 159.296 252.638 159.238C251.329 160.202 250.839 161.997 249.797 163.245C249.287 163.85 248.66 164.34 248.11 164.902C247.428 165.626 246.804 166.403 246.244 167.224C244.692 169.382 243.129 171.549 242.019 173.966C241.439 175.224 240.99 176.533 240.528 177.834C238.713 182.964 235.75 187.829 234.519 193.134C234.218 194.429 233.432 195.599 233.314 196.924C233.183 198.338 233.827 199.697 234.495 200.944C235.507 202.851 236.634 204.704 237.532 206.665C238.061 207.808 238.52 208.988 239.111 210.104C239.755 211.321 240.545 212.45 241.22 213.651C242.863 216.731 243.808 220.136 244.682 223.493ZM267.005 126.607L266.843 126.526C266.238 126.263 265.684 125.896 265.206 125.44C263.752 123.885 263.128 121.542 262.672 119.449C262.618 119.199 262.571 118.952 262.527 118.702C264.292 121.214 265.959 123.811 267.005 126.614V126.607Z"
      fill="url(#paint0_linear)" />
    <path
      d="M260.375 106.303C260.209 105.522 260.088 104.71 259.659 104.041C259.366 103.621 259.011 103.247 258.607 102.932C257.952 102.322 257.187 101.843 256.353 101.522C255.935 101.365 255.486 101.309 255.042 101.361C254.598 101.412 254.173 101.568 253.802 101.816C253.09 102.357 252.79 103.284 252.678 104.183C252.492 105.406 252.702 106.656 253.279 107.75C253.971 108.954 255.165 109.759 256.167 110.719C256.895 111.422 257.528 112.218 258.05 113.086C258.288 113.536 258.575 113.957 258.907 114.343C259.075 114.532 259.284 114.68 259.518 114.774C259.752 114.869 260.005 114.908 260.257 114.888C260.677 114.776 261.059 114.55 261.36 114.235C261.772 113.873 262.878 113.221 262.912 112.656C262.939 112.193 262.075 111.145 261.863 110.709C261.214 109.297 260.715 107.82 260.375 106.303Z"
      fill="#FBBEBE" />
    <path opacity="0.1"
      d="M260.375 106.303C260.209 105.522 260.088 104.71 259.659 104.041C259.366 103.621 259.011 103.247 258.607 102.932C257.952 102.322 257.187 101.843 256.353 101.522C255.935 101.365 255.486 101.309 255.042 101.361C254.598 101.412 254.173 101.568 253.802 101.816C253.09 102.357 252.79 103.284 252.678 104.183C252.492 105.406 252.702 106.656 253.279 107.75C253.971 108.954 255.165 109.759 256.167 110.719C256.895 111.422 257.528 112.218 258.05 113.086C258.288 113.536 258.575 113.957 258.907 114.343C259.075 114.532 259.284 114.68 259.518 114.774C259.752 114.869 260.005 114.908 260.257 114.888C260.677 114.776 261.059 114.55 261.36 114.235C261.772 113.873 262.878 113.221 262.912 112.656C262.939 112.193 262.075 111.145 261.863 110.709C261.214 109.297 260.715 107.82 260.375 106.303Z"
      fill="black" />
    <path
      d="M283.713 128.561C281.933 128.083 280.096 127.855 278.254 127.885C275.18 127.929 272.015 128.676 269.086 127.729C268.333 127.472 267.6 127.159 266.893 126.793C266.287 126.533 265.732 126.168 265.253 125.714C263.796 124.169 263.168 121.839 262.716 119.763C262.317 117.674 262.085 115.557 262.024 113.43C261.265 113.785 260.462 114.134 259.629 114.063C258.795 113.992 257.942 113.349 257.942 112.511C258.066 114.479 258.158 116.47 257.83 118.411C257.702 119.182 257.493 119.942 257.435 120.72C257.186 123.537 258.66 126.35 258.134 129.126C258.046 129.542 258.09 129.976 258.262 130.365C258.433 130.755 258.722 131.081 259.089 131.296C259.845 131.705 260.732 131.756 261.562 131.973C263.192 132.388 264.599 133.426 266.252 133.815C267.011 133.994 267.804 134.028 268.56 134.231C269.636 134.519 270.618 135.137 271.718 135.33C272.541 135.479 273.405 135.377 274.225 135.448C274.951 135.509 275.659 135.699 276.388 135.719C278.169 135.763 279.85 134.755 281.031 133.416C282.212 132.077 282.964 130.174 283.713 128.561Z"
      fill="#F86D70" />
    <path opacity="0.1"
      d="M283.713 128.561C281.933 128.083 280.096 127.855 278.254 127.885C275.18 127.929 272.015 128.676 269.086 127.729C268.333 127.472 267.6 127.159 266.893 126.793C266.287 126.533 265.732 126.168 265.253 125.714C263.796 124.169 263.168 121.839 262.716 119.763C262.317 117.674 262.085 115.557 262.024 113.43C261.265 113.785 260.462 114.134 259.629 114.063C258.795 113.992 257.942 113.349 257.942 112.511C258.066 114.479 258.158 116.47 257.83 118.411C257.702 119.182 257.493 119.942 257.435 120.72C257.186 123.537 258.66 126.35 258.134 129.126C258.046 129.542 258.09 129.976 258.262 130.365C258.433 130.755 258.722 131.081 259.089 131.296C259.845 131.705 260.732 131.756 261.562 131.973C263.192 132.388 264.599 133.426 266.252 133.815C267.011 133.994 267.804 134.028 268.56 134.231C269.636 134.519 270.618 135.137 271.718 135.33C272.541 135.479 273.405 135.377 274.225 135.448C274.951 135.509 275.659 135.699 276.388 135.719C278.169 135.763 279.85 134.755 281.031 133.416C282.212 132.077 282.964 130.174 283.713 128.561Z"
      fill="black" />
    <path
      d="M288.592 215.605C289.143 215.673 289.677 215.841 290.168 216.099C290.809 216.555 291.289 217.204 291.538 217.951C292.274 219.77 292.425 221.772 292.459 223.737C292.486 225.322 292.432 226.945 291.865 228.426C291.71 228.893 291.443 229.315 291.086 229.654C290.77 229.902 290.404 230.08 290.013 230.174C289.166 230.408 288.188 230.404 287.496 229.863C286.726 229.261 286.534 228.196 286.372 227.233C286.153 225.934 285.842 224.551 284.877 223.655C284.162 222.979 283.136 222.641 282.617 221.823C281.996 220.839 282.323 219.554 282.718 218.459C283.055 217.508 283.565 215.585 284.557 215.098C285.549 214.611 287.563 215.419 288.592 215.605Z"
      fill="#FBBEBE" />
    <path
      d="M252.047 220.271C252.345 221.332 252.872 222.315 253.592 223.148C254.031 223.655 254.581 224.271 254.352 224.9C254.255 225.113 254.113 225.304 253.937 225.458C250.677 228.649 246.119 230.191 241.597 230.773C241.525 230.792 241.45 230.792 241.378 230.773C241.246 230.715 241.213 230.546 241.199 230.401C241.125 229.929 241.125 229.449 241.199 228.977C241.419 227.872 242.387 227.091 243.335 226.479C244.283 225.867 245.319 225.278 245.845 224.281C246.503 223.044 246.227 221.431 247.009 220.271C247.644 219.328 248.825 218.919 249.948 218.749C250.336 218.689 251.163 218.263 251.494 218.459C251.824 218.655 251.932 219.882 252.047 220.271Z"
      fill="#FBBEBE" />
    <path
      d="M289.038 215.49C289.038 215.381 289.077 215.275 289.149 215.193C289.221 215.111 289.321 215.058 289.429 215.044C289.647 215.022 289.868 215.05 290.074 215.125C290.58 215.266 291.099 215.362 291.622 215.412C292.25 215.434 292.876 215.508 293.492 215.632C293.8 215.697 294.09 215.83 294.34 216.021C294.59 216.212 294.795 216.457 294.939 216.738C295.059 217.073 295.113 217.429 295.098 217.786C295.112 219.153 294.949 220.517 294.615 221.843C294.588 221.945 294.548 222.063 294.45 222.1C294.352 222.137 294.281 222.1 294.204 222.137C294.169 222.157 294.138 222.183 294.113 222.214C294.088 222.245 294.069 222.281 294.058 222.32C293.732 223.187 293.542 224.099 293.495 225.025C293.347 226.377 293.158 227.75 292.931 229.102C292.8 229.894 292.635 230.725 292.115 231.334C291.545 232.01 290.644 232.291 289.773 232.409C287.938 232.653 286.085 232.284 284.273 231.905C283.927 231.871 283.602 231.725 283.346 231.49C283.179 231.282 283.098 231.018 283.12 230.752C283.16 229.843 283.997 229.2 284.749 228.693L285.792 227.993C285.864 227.953 285.927 227.896 285.974 227.828C286.025 227.723 286.043 227.605 286.025 227.49L285.957 226.137C286.648 226.15 287.322 226.349 287.908 226.715C288.495 227.08 288.971 227.598 289.287 228.213C289.429 228.501 289.567 228.835 289.864 228.947C290.057 228.991 290.26 228.958 290.43 228.856C290.599 228.753 290.722 228.588 290.772 228.396C290.861 228.008 290.851 227.605 290.742 227.223C290.131 223.953 290.276 220.592 289.905 217.289C289.881 216.917 289.765 216.556 289.567 216.241C289.409 216.014 289.075 215.794 289.038 215.49Z"
      fill="#F86D70" />
    <path
      d="M247.931 111.371H255.347C257.332 111.371 258.94 109.759 258.94 107.77V107.767C258.94 105.778 257.332 104.166 255.347 104.166H247.931C245.946 104.166 244.337 105.778 244.337 107.767V107.77C244.337 109.759 245.946 111.371 247.931 111.371Z"
      fill="#0EA65D" />
    <path
      d="M251.75 110.019C252.991 110.019 253.997 109.011 253.997 107.767C253.997 106.523 252.991 105.515 251.75 105.515C250.509 105.515 249.503 106.523 249.503 107.767C249.503 109.011 250.509 110.019 251.75 110.019Z"
      fill="white" />
    <path
      d="M243.649 228.166C243.497 228.419 243.258 228.616 243.116 228.876C243.035 229 243.003 229.149 243.024 229.295C243.045 229.441 243.118 229.575 243.231 229.67C243.382 229.737 243.551 229.754 243.713 229.718C246.972 229.31 250.031 227.921 252.486 225.735C252.894 225.39 253.256 224.993 253.562 224.555C253.849 224.119 254.092 223.584 254.574 223.402C254.868 224.672 255.02 225.97 255.026 227.273C255.026 228.132 254.905 229.109 254.207 229.606C253.926 229.781 253.618 229.907 253.296 229.978L251.77 230.411C251.5 230.513 251.208 230.541 250.924 230.492C250.745 230.445 250.586 230.33 250.401 230.296C250.199 230.275 249.996 230.301 249.807 230.374L248.487 230.759C248.042 230.875 247.606 231.028 247.185 231.216C246.807 231.395 246.46 231.625 246.092 231.824C245.477 232.133 244.838 232.393 244.182 232.602L241.864 233.41C241.229 233.659 240.566 233.829 239.89 233.917C239.425 233.958 238.949 233.917 238.487 233.995C238.149 234.056 237.812 234.184 237.441 234.211C236.855 234.23 236.279 234.059 235.797 233.724C235.609 233.618 235.446 233.473 235.318 233.298C234.981 232.781 235.274 232.098 235.598 231.574C236.169 230.578 236.981 229.743 237.96 229.146C238.365 228.923 238.8 228.761 239.215 228.558C240.4 227.983 241.294 227.023 242.411 226.367C243.467 225.748 244.145 227.348 243.649 228.166Z"
      fill="#F86D70" />
    <path
      d="M276.236 134.549C277.463 135.392 278.867 135.939 280.339 136.148C281.109 136.244 281.885 136.286 282.661 136.273C285.897 136.27 289.128 136 292.321 135.465C291.052 134.062 289.767 132.561 289.284 130.732C289.046 129.762 288.996 128.755 289.136 127.766C289.33 126.503 289.633 125.259 290.04 124.047C288.678 124.119 287.313 124.084 285.957 123.942C285.185 123.861 283.288 123.158 282.617 123.692C281.945 124.226 282.462 125.947 282.472 126.756C282.473 126.785 282.473 126.814 282.472 126.843C282.439 128.074 282.174 129.288 281.692 130.421C280.727 132.605 278.635 134.404 276.236 134.549Z"
      fill="#FBBEBE" />
    <path opacity="0.1"
      d="M282.475 126.739C283.448 127.376 284.547 127.797 285.697 127.972C286.847 128.147 288.02 128.072 289.139 127.753C289.333 126.49 289.636 125.245 290.043 124.034C288.682 124.105 287.317 124.07 285.96 123.929C285.188 123.848 283.291 123.145 282.62 123.679C281.949 124.213 282.465 125.931 282.475 126.739Z"
      fill="black" />
    <path
      d="M286.929 127.689C291.422 127.689 295.064 124.039 295.064 119.537C295.064 115.035 291.422 111.385 286.929 111.385C282.436 111.385 278.794 115.035 278.794 119.537C278.794 124.039 282.436 127.689 286.929 127.689Z"
      fill="#FBBEBE" />
    <path
      d="M252.415 160.783C252.412 161.441 252.58 162.088 252.902 162.661C253.223 163.234 253.688 163.714 254.251 164.053C254.877 164.382 255.547 164.619 256.241 164.756C259.953 165.656 263.772 166.379 267.595 166.159C268.424 166.152 269.243 165.98 270.004 165.652C270.383 165.484 270.716 165.227 270.975 164.903C271.234 164.578 271.412 164.196 271.492 163.789C271.496 163.587 271.535 163.387 271.607 163.197C271.755 162.99 271.948 162.818 272.171 162.694C272.519 162.431 272.785 162.075 272.94 161.667C273.095 161.259 273.131 160.816 273.044 160.388C273.507 160.597 273.993 160.127 274.212 159.668C274.431 159.208 274.6 158.653 275.066 158.454C275.383 158.318 275.74 158.4 276.078 158.312C276.614 158.173 276.942 157.635 277.319 157.247C278.089 156.422 279.185 155.996 280.191 155.485C283.187 153.974 285.627 151.576 288.019 149.22C289.262 148.072 290.392 146.806 291.393 145.44C291.661 145.047 291.909 144.641 292.135 144.222C292.856 142.834 293.482 141.399 294.008 139.925C294.312 139.134 294.619 138.302 294.494 137.464C294.494 137.389 294.467 137.315 294.45 137.237C294.294 136.699 294.044 136.193 293.711 135.743C292.884 134.525 291.801 133.376 290.377 132.997C288.953 132.618 287.536 133.075 286.089 133.383C285.61 133.49 285.124 133.565 284.635 133.606C283.103 133.714 281.598 133.301 280.107 132.892L278.494 132.446C277.687 132.223 277.282 131.246 276.469 131.073C276.104 131.018 275.731 131.038 275.373 131.131C273.716 131.445 272.042 131.854 270.581 132.7C270.255 132.887 269.943 133.099 269.65 133.335C268.59 134.129 267.827 135.256 267.484 136.537C267.146 137.947 267.464 139.455 267.126 140.865C266.85 142.028 266.151 143.042 265.47 144.023L261.495 149.727C260.609 151.064 259.632 152.338 258.573 153.541C256.434 155.871 252.472 157.622 252.415 160.783Z"
      fill="#F86D70" />
    <path
      d="M263.023 106.303C262.858 105.522 262.736 104.71 262.308 104.041C262.014 103.621 261.66 103.247 261.255 102.932C260.601 102.322 259.836 101.843 259.001 101.522C258.583 101.365 258.134 101.309 257.69 101.361C257.247 101.412 256.822 101.568 256.45 101.816C255.738 102.357 255.438 103.284 255.327 104.183C255.14 105.406 255.351 106.656 255.927 107.75C256.602 108.954 257.814 109.759 258.816 110.719C259.544 111.422 260.176 112.218 260.698 113.086C260.936 113.536 261.224 113.957 261.555 114.343C261.723 114.532 261.932 114.68 262.166 114.774C262.401 114.869 262.653 114.908 262.905 114.888C263.326 114.776 263.708 114.55 264.008 114.235C264.42 113.873 265.527 113.221 265.561 112.656C265.588 112.193 264.724 111.145 264.511 110.709C263.862 109.297 263.363 107.82 263.023 106.303Z"
      fill="#FBBEBE" />
    <path
      d="M234.438 200.718C235.45 202.611 236.577 204.437 237.491 206.398C238.021 207.538 238.48 208.708 239.07 209.817C239.715 211.024 240.508 212.146 241.183 213.336C242.87 216.346 243.824 219.74 244.698 223.084C247.14 222.72 249.491 221.892 251.622 220.643C251.765 220.562 251.904 220.473 252.037 220.376C252.608 219.967 253.084 219.44 253.434 218.831C252.628 215.788 251.801 212.667 250.158 209.965C249.621 209.086 249.007 208.275 248.471 207.392C246.875 204.873 246.544 201.698 244.719 199.342C244.544 199.105 244.45 198.818 244.45 198.524C244.45 198.229 244.544 197.942 244.719 197.705C244.928 197.431 245.265 197.171 245.201 196.83C245.154 196.583 244.897 196.36 244.995 196.13C245.043 196.018 245.157 195.957 245.245 195.876C245.555 195.592 245.515 195.102 245.545 194.683C245.613 193.614 246.25 192.678 246.868 191.805C246.993 191.6 247.159 191.422 247.354 191.281C247.519 191.18 247.715 191.132 247.88 191.031C248.461 190.669 248.42 189.817 248.7 189.185C249.065 188.353 249.982 187.93 250.586 187.258C251.352 186.399 251.544 185.205 252.354 184.455C252.438 184.376 252.527 184.304 252.621 184.238C252.27 185.516 252.109 186.839 252.145 188.164C252.067 192.708 253.201 197.408 252.671 201.922C252.253 205.499 254.453 209.069 257.571 210.861C258.793 211.508 260.07 212.047 261.387 212.471C263.337 213.164 265.287 213.877 267.2 214.679C268.55 215.24 269.9 215.849 271.202 216.494C272.823 217.282 274.4 218.158 275.926 219.118C277.805 220.315 279.688 221.532 281.021 223.321C282.313 223.287 283.497 222.509 284.314 221.505C285.131 220.501 285.64 219.287 286.116 218.087C286.531 217.049 286.942 215.984 286.973 214.865C286.973 214.744 286.94 214.626 286.877 214.524C286.813 214.422 286.723 214.34 286.615 214.286L277.687 209.553L276 208.667C272.346 206.723 268.577 204.924 264.903 202.983C264.656 203.054 264.454 202.774 264.383 202.53C264.312 202.287 264.262 201.982 264.029 201.874C263.911 201.82 263.762 201.82 263.691 201.726C263.633 201.638 263.612 201.531 263.631 201.428C263.749 199.656 265.024 198.027 264.768 196.272C264.66 195.521 264.272 194.784 264.43 194.05C264.548 193.54 264.913 193.127 265.105 192.644C265.54 191.562 265.105 190.277 265.584 189.205C265.904 188.51 266.121 187.772 266.229 187.014C266.459 185.505 266.92 184.041 267.595 182.673C267.918 181.979 268.341 181.337 268.85 180.766C269.12 180.478 269.421 180.218 269.674 179.921C270.453 178.998 270.737 177.767 270.959 176.58C271.357 174.426 271.634 172.185 271.135 170.058C270.966 169.331 270.71 168.611 270.72 167.863C270.72 166.88 271.162 165.727 270.48 165.013C270.193 164.757 269.844 164.58 269.468 164.499C267.881 164.07 266.261 163.771 264.626 163.603L257.183 162.633C256.323 162.576 255.481 162.357 254.703 161.987C253.69 161.429 253.016 160.391 252.611 159.309C251.302 160.266 250.809 162.048 249.766 163.285C249.257 163.891 248.629 164.377 248.079 164.932C247.396 165.651 246.771 166.423 246.21 167.241C244.655 169.382 243.089 171.539 241.975 173.936C241.399 175.184 240.963 176.485 240.484 177.777C238.665 182.872 235.7 187.707 234.468 192.972C234.164 194.26 233.378 195.42 233.26 196.738C233.122 198.135 233.766 199.487 234.438 200.718Z"
      fill="#434175" />
    <path opacity="0.1"
      d="M273.483 158.42C273.664 158.759 273.758 159.138 273.756 159.522C273.591 158.697 272.457 158.241 272.387 157.426C272.353 157.05 272.42 157.067 272.653 157.267C273.007 157.561 273.159 158.095 273.483 158.42Z"
      fill="black" />
    <path opacity="0.1"
      d="M270.038 160.922C270.275 161.125 270.454 161.389 270.554 161.686C270.743 162.103 270.779 162.574 270.655 163.015C270.49 162.937 270.433 162.734 270.382 162.555C270.306 162.278 270.192 162.013 270.045 161.767C269.91 161.554 269.292 161.047 269.299 160.814C269.289 160.462 269.873 160.797 270.038 160.922Z"
      fill="black" />
    <path opacity="0.1"
      d="M269.64 133.335C270.163 133.784 270.739 134.168 271.354 134.478C272.967 135.296 274.752 135.726 276.375 136.507C277.175 136.914 277.952 137.366 278.703 137.859C280.312 138.873 281.919 139.888 283.525 140.919C283.911 141.143 284.269 141.414 284.588 141.727C285.168 142.349 285.164 143.418 285.694 144.094C285.987 144.428 286.346 144.697 286.749 144.883C287.152 145.07 287.589 145.169 288.033 145.176C288.921 145.183 289.804 145.035 290.641 144.736C291.148 144.586 291.647 144.404 292.132 144.192C292.64 143.977 293.12 143.703 293.563 143.374C294.005 143.062 294.382 142.666 294.671 142.208C294.961 141.75 295.157 141.24 295.25 140.706C295.308 139.968 295.21 139.226 294.963 138.529C294.829 138.074 294.658 137.632 294.45 137.207C294.331 136.965 294.194 136.733 294.038 136.513C292.932 134.941 290.981 134.201 289.095 133.832C288.1 133.639 287.088 133.521 286.089 133.352C285.61 133.46 285.124 133.534 284.635 133.575C283.103 133.683 281.598 133.271 280.107 132.862L278.494 132.415C277.687 132.192 277.283 131.215 276.469 131.043C276.104 130.988 275.731 131.007 275.373 131.1C273.716 131.415 272.043 131.824 270.582 132.669C270.25 132.865 269.936 133.088 269.64 133.335Z"
      fill="black" />
    <path
      d="M265.709 111.699C265.915 113.671 267.575 115.118 268.587 116.818C269.08 117.647 269.424 118.553 269.866 119.408C270.371 120.345 270.935 121.248 271.553 122.113L273.358 124.74C274.421 126.286 275.494 127.844 276.85 129.136C279.212 129.538 281.203 131.3 283.447 132.155C285.245 132.831 287.202 132.933 289.088 133.301C290.974 133.67 292.925 134.407 294.031 135.983C294.445 136.605 294.757 137.29 294.956 138.011C295.203 138.708 295.301 139.449 295.243 140.185C295.151 140.72 294.954 141.231 294.665 141.689C294.375 142.148 293.998 142.544 293.556 142.857C292.668 143.473 291.68 143.93 290.637 144.209C289.8 144.506 288.917 144.654 288.029 144.649C287.585 144.642 287.147 144.542 286.744 144.356C286.341 144.169 285.981 143.9 285.687 143.567C285.161 142.89 285.164 141.812 284.584 141.2C284.265 140.887 283.908 140.615 283.521 140.392L278.699 137.349C277.949 136.855 277.172 136.404 276.371 135.996C274.748 135.202 272.963 134.772 271.351 133.968C269.738 133.163 268.236 131.8 267.919 130.018C266.937 124.544 263.155 119.929 259.922 115.408C260.027 115.388 259.997 115.145 260.034 115.043C260.502 113.982 261.342 113.13 262.396 112.649C263.435 112.085 264.589 111.939 265.709 111.699Z"
      fill="#F86D70" />
    <path
      d="M282.752 111.74C282.691 111.146 282.809 110.548 283.089 110.022C283.626 109.129 284.746 108.815 285.765 108.605C286.784 108.396 287.722 108.234 288.707 108.091C289.509 107.93 290.333 107.915 291.14 108.048C292.24 108.291 293.164 109.031 294.177 109.488C295.391 110.032 296.741 110.164 298.037 110.475C299.332 110.786 300.665 111.283 301.478 112.342C302.096 113.143 302.342 114.167 302.528 115.165C304.07 123.493 302.41 132.033 302.096 140.496C301.971 143.79 302.119 147.309 303.999 150.018L298.529 149.872C297.129 149.835 295.624 149.761 294.524 148.895C293.552 148.134 293.094 146.907 292.682 145.747C292.309 144.846 292.073 143.895 291.98 142.924C291.896 140.936 293.023 138.985 292.655 137.027C292.382 135.567 291.305 134.383 290.185 133.426C289.065 132.47 287.789 131.634 286.868 130.468C285.232 128.388 284.918 125.552 285.12 122.911C285.242 121.342 285.525 119.77 285.387 118.201C285.318 117.001 284.886 115.85 284.149 114.901C283.288 113.86 282.833 113.211 282.752 111.74Z"
      fill="#434175" />
    <path opacity="0.1"
      d="M283.089 110.022C283.615 109.143 284.709 108.825 285.711 108.619C285.179 108.806 284.723 109.162 284.412 109.633C284.133 110.161 284.016 110.76 284.074 111.354C284.149 112.825 284.604 113.474 285.475 114.516C286.215 115.463 286.648 116.614 286.716 117.816C286.851 119.385 286.571 120.953 286.45 122.526C286.244 125.163 286.558 128.003 288.198 130.082C289.115 131.249 290.381 132.081 291.514 133.041C292.648 134.001 293.711 135.181 293.984 136.642C294.349 138.596 293.222 140.55 293.309 142.539C293.399 143.508 293.634 144.459 294.008 145.358C294.423 146.522 294.882 147.749 295.85 148.51C296.95 149.375 298.458 149.45 299.859 149.487L303.732 149.588C303.816 149.73 303.907 149.872 304.002 150.011L298.532 149.865C297.132 149.828 295.627 149.754 294.527 148.888C293.556 148.128 293.097 146.9 292.685 145.74C292.312 144.84 292.076 143.888 291.983 142.917C291.899 140.929 293.026 138.978 292.658 137.021C292.385 135.56 291.308 134.376 290.188 133.42C289.068 132.463 287.793 131.628 286.871 130.461C285.235 128.382 284.921 125.545 285.124 122.904C285.245 121.335 285.529 119.763 285.39 118.194C285.321 116.994 284.889 115.843 284.152 114.894C283.281 113.853 282.826 113.204 282.748 111.733C282.69 111.141 282.809 110.546 283.089 110.022Z"
      fill="black" />
    <path opacity="0.1"
      d="M241.999 195.846L252.047 220.376C252.618 219.967 253.094 219.44 253.444 218.831C252.638 215.788 251.811 212.667 250.168 209.965C249.631 209.086 249.017 208.275 248.481 207.392C246.885 204.873 246.554 201.698 244.729 199.342C244.554 199.105 244.46 198.818 244.46 198.523C244.46 198.229 244.554 197.942 244.729 197.705C244.938 197.431 245.275 197.171 245.211 196.829C245.164 196.583 244.908 196.36 245.005 196.13C245.053 196.018 245.167 195.957 245.255 195.876C245.565 195.592 245.525 195.102 245.555 194.682C245.623 193.614 246.261 192.677 246.878 191.805C247.003 191.6 247.169 191.421 247.364 191.281C247.529 191.18 247.725 191.132 247.89 191.031C248.471 190.669 248.43 189.817 248.71 189.185C249.075 188.353 249.992 187.93 250.596 187.257C251.362 186.399 251.555 185.205 252.364 184.455L252.435 184.279L251.676 179.545L241.999 195.846Z"
      fill="black" />
    <path
      d="M329.669 225.143C335.996 225.143 341.124 224.155 341.124 222.935C341.124 221.716 335.996 220.727 329.669 220.727C323.343 220.727 318.214 221.716 318.214 222.935C318.214 224.155 323.343 225.143 329.669 225.143Z"
      fill="#0EA65D" />
    <path
      d="M329.861 223.743C330.597 223.743 331.194 222.961 331.194 221.995C331.194 221.03 330.597 220.247 329.861 220.247C329.125 220.247 328.528 221.03 328.528 221.995C328.528 222.961 329.125 223.743 329.861 223.743Z"
      fill="#3F3D56" />
    <path
      d="M329.861 221.606C330.597 221.606 331.194 220.824 331.194 219.858C331.194 218.893 330.597 218.11 329.861 218.11C329.125 218.11 328.528 218.893 328.528 219.858C328.528 220.824 329.125 221.606 329.861 221.606Z"
      fill="#3F3D56" />
    <path
      d="M329.861 219.466C330.597 219.466 331.194 218.684 331.194 217.718C331.194 216.753 330.597 215.97 329.861 215.97C329.125 215.97 328.528 216.753 328.528 217.718C328.528 218.684 329.125 219.466 329.861 219.466Z"
      fill="#3F3D56" />
    <path
      d="M329.861 217.329C330.597 217.329 331.194 216.547 331.194 215.581C331.194 214.616 330.597 213.833 329.861 213.833C329.125 213.833 328.528 214.616 328.528 215.581C328.528 216.547 329.125 217.329 329.861 217.329Z"
      fill="#3F3D56" />
    <path
      d="M329.861 215.189C330.597 215.189 331.194 214.406 331.194 213.441C331.194 212.476 330.597 211.693 329.861 211.693C329.125 211.693 328.528 212.476 328.528 213.441C328.528 214.406 329.125 215.189 329.861 215.189Z"
      fill="#3F3D56" />
    <path
      d="M329.861 213.052C330.597 213.052 331.194 212.27 331.194 211.304C331.194 210.339 330.597 209.556 329.861 209.556C329.125 209.556 328.528 210.339 328.528 211.304C328.528 212.27 329.125 213.052 329.861 213.052Z"
      fill="#3F3D56" />
    <path
      d="M329.861 210.915C330.597 210.915 331.194 210.133 331.194 209.167C331.194 208.202 330.597 207.419 329.861 207.419C329.125 207.419 328.528 208.202 328.528 209.167C328.528 210.133 329.125 210.915 329.861 210.915Z"
      fill="#3F3D56" />
    <path
      d="M324.867 194.534C324.685 194.301 324.52 194.056 324.371 193.8L327.874 193.222L324.085 193.252C323.722 192.459 323.524 191.601 323.503 190.729C323.482 189.857 323.639 188.99 323.963 188.181L329.048 190.821L324.358 187.369C324.795 186.604 325.386 185.938 326.092 185.413C326.798 184.887 327.605 184.513 328.462 184.315C329.319 184.116 330.207 184.097 331.072 184.258C331.937 184.42 332.759 184.758 333.487 185.253C334.215 185.747 334.834 186.387 335.304 187.132C335.774 187.877 336.085 188.711 336.219 189.582C336.352 190.454 336.305 191.343 336.079 192.195C335.854 193.047 335.456 193.843 334.909 194.534C335.194 194.894 335.439 195.285 335.638 195.7L331.089 198.067L335.941 196.437C336.164 197.099 336.278 197.792 336.279 198.49C336.281 199.926 335.798 201.322 334.909 202.449C335.65 203.393 336.111 204.527 336.239 205.721C336.367 206.915 336.157 208.122 335.633 209.202C335.11 210.282 334.293 211.193 333.277 211.831C332.261 212.468 331.087 212.806 329.888 212.806C328.69 212.806 327.515 212.468 326.499 211.831C325.483 211.193 324.667 210.282 324.143 209.202C323.619 208.122 323.409 206.915 323.538 205.721C323.666 204.527 324.127 203.393 324.867 202.449C323.982 201.32 323.501 199.927 323.501 198.491C323.501 197.056 323.982 195.662 324.867 194.534Z"
      fill="#0EA65D" />
    <path opacity="0.1"
      d="M336.279 198.49C336.281 199.926 335.798 201.322 334.909 202.449C335.65 203.393 336.111 204.527 336.239 205.721C336.367 206.915 336.157 208.122 335.633 209.202C335.11 210.282 334.293 211.193 333.277 211.831C332.261 212.468 331.087 212.806 329.888 212.806C328.69 212.806 327.515 212.468 326.499 211.831C325.483 211.193 324.667 210.282 324.143 209.202C323.619 208.122 323.409 206.915 323.538 205.721C323.666 204.527 324.127 203.393 324.867 202.449C324.01 201.36 336.279 197.773 336.279 198.49Z"
      fill="black" />
    <path
      d="M351.979 199.9C356.233 199.9 359.682 199.235 359.682 198.415C359.682 197.596 356.233 196.931 351.979 196.931C347.724 196.931 344.275 197.596 344.275 198.415C344.275 199.235 347.724 199.9 351.979 199.9Z"
      fill="#0EA65D" />
    <path
      d="M352.11 198.963C352.606 198.963 353.008 198.436 353.008 197.786C353.008 197.137 352.606 196.61 352.11 196.61C351.615 196.61 351.213 197.137 351.213 197.786C351.213 198.436 351.615 198.963 352.11 198.963Z"
      fill="#3F3D56" />
    <path
      d="M352.11 197.526C352.606 197.526 353.008 196.999 353.008 196.349C353.008 195.7 352.606 195.173 352.11 195.173C351.615 195.173 351.213 195.7 351.213 196.349C351.213 196.999 351.615 197.526 352.11 197.526Z"
      fill="#3F3D56" />
    <path
      d="M352.11 196.086C352.606 196.086 353.008 195.559 353.008 194.909C353.008 194.259 352.606 193.732 352.11 193.732C351.615 193.732 351.213 194.259 351.213 194.909C351.213 195.559 351.615 196.086 352.11 196.086Z"
      fill="#3F3D56" />
    <path
      d="M352.11 194.649C352.606 194.649 353.008 194.122 353.008 193.472C353.008 192.822 352.606 192.295 352.11 192.295C351.615 192.295 351.213 192.822 351.213 193.472C351.213 194.122 351.615 194.649 352.11 194.649Z"
      fill="#3F3D56" />
    <path
      d="M352.11 193.212C352.606 193.212 353.008 192.685 353.008 192.035C353.008 191.385 352.606 190.858 352.11 190.858C351.615 190.858 351.213 191.385 351.213 192.035C351.213 192.685 351.615 193.212 352.11 193.212Z"
      fill="#3F3D56" />
    <path
      d="M352.11 191.775C352.606 191.775 353.008 191.248 353.008 190.598C353.008 189.948 352.606 189.421 352.11 189.421C351.615 189.421 351.213 189.948 351.213 190.598C351.213 191.248 351.615 191.775 352.11 191.775Z"
      fill="#3F3D56" />
    <path
      d="M352.11 190.334C352.606 190.334 353.008 189.808 353.008 189.158C353.008 188.508 352.606 187.981 352.11 187.981C351.615 187.981 351.213 188.508 351.213 189.158C351.213 189.808 351.615 190.334 352.11 190.334Z"
      fill="#3F3D56" />
    <path
      d="M348.753 179.322C348.628 179.167 348.515 179.002 348.416 178.828L350.778 178.439L348.23 178.46C347.969 177.896 347.835 177.282 347.835 176.661C347.835 176.108 347.94 175.561 348.146 175.048L351.567 176.827L348.412 174.504C348.705 173.987 349.101 173.536 349.576 173.181C350.051 172.825 350.595 172.571 351.172 172.436C351.75 172.301 352.349 172.288 352.932 172.396C353.515 172.504 354.069 172.733 354.56 173.066C355.051 173.4 355.467 173.832 355.783 174.335C356.099 174.838 356.308 175.401 356.396 175.988C356.484 176.576 356.45 177.176 356.295 177.749C356.141 178.323 355.869 178.858 355.498 179.322C355.689 179.565 355.853 179.828 355.987 180.106L352.93 181.699L356.19 180.6C356.421 181.281 356.478 182.008 356.357 182.717C356.237 183.425 355.941 184.092 355.498 184.657C355.998 185.292 356.31 186.056 356.397 186.86C356.485 187.664 356.344 188.477 355.992 189.205C355.64 189.933 355.09 190.547 354.406 190.976C353.722 191.406 352.931 191.634 352.124 191.634C351.317 191.634 350.525 191.406 349.841 190.976C349.157 190.547 348.608 189.933 348.256 189.205C347.903 188.477 347.763 187.664 347.85 186.86C347.938 186.056 348.25 185.292 348.75 184.657C348.153 183.899 347.829 182.962 347.829 181.996C347.829 181.031 348.153 180.094 348.75 179.335L348.753 179.322Z"
      fill="#0EA65D" />
    <path opacity="0.1"
      d="M356.423 181.983C356.423 182.948 356.1 183.885 355.505 184.644C356.005 185.279 356.317 186.042 356.404 186.847C356.491 187.651 356.351 188.464 355.999 189.192C355.647 189.92 355.097 190.533 354.413 190.963C353.729 191.393 352.938 191.62 352.131 191.62C351.323 191.62 350.532 191.393 349.848 190.963C349.164 190.533 348.615 189.92 348.262 189.192C347.91 188.464 347.77 187.651 347.857 186.847C347.945 186.042 348.256 185.279 348.757 184.644C348.176 183.91 356.423 181.499 356.423 181.983Z"
      fill="black" />
  </g>
  <defs>
    <linearGradient id="paint0_linear" x1="268.57" y1="234.712" x2="268.57" y2="100.934" gradientUnits="userSpaceOnUse">
      <stop stop-color="#808080" stop-opacity="0.25" />
      <stop offset="0.54" stop-color="#808080" stop-opacity="0.12" />
      <stop offset="1" stop-color="#808080" stop-opacity="0.1" />
    </linearGradient>
    <clipPath id="clip0">
      <rect width="386" height="236" fill="white" />
    </clipPath>
  </defs>
</svg>