<svg width="292" height="264" viewBox="0 0 292 264" fill="none" xmlns="http://www.w3.org/2000/svg">
<g clip-path="url(#clip0)">
<path d="M138.28 251.844C176.155 251.844 206.859 221.067 206.859 183.101C206.859 145.135 176.155 114.357 138.28 114.357C100.405 114.357 69.7017 145.135 69.7017 183.101C69.7017 221.067 100.405 251.844 138.28 251.844Z" fill="#F2F2F2"/>
<path d="M128.593 264C164.534 264 193.67 260.01 193.67 255.088C193.67 250.167 164.534 246.177 128.593 246.177C92.651 246.177 63.5146 250.167 63.5146 255.088C63.5146 260.01 92.651 264 128.593 264Z" fill="#3F3D56"/>
<path d="M131.168 74.5181C133.579 73.7055 135.215 72.0956 134.822 70.9222C134.428 69.7488 132.154 69.4562 129.743 70.2688C127.331 71.0814 125.695 72.6913 126.089 73.8648C126.482 75.0382 128.756 75.3307 131.168 74.5181Z" fill="#3F3D56"/>
<path d="M121.117 82.61L145.282 71.573C145.282 71.573 186.222 56.0613 221.244 93.9255C221.244 93.9255 205.548 83.8257 193.651 97.167C193.651 97.167 171.264 91.0958 152.477 113.403C152.477 113.403 123.094 117.863 110.856 133.494C110.856 133.494 97.2123 131.391 91.7818 148.729C91.7551 148.813 91.7071 148.89 91.6425 148.951C91.5778 149.012 91.4987 149.055 91.4126 149.076C91.3265 149.098 91.2363 149.097 91.1507 149.074C91.0651 149.05 90.987 149.005 90.9237 148.943C90.8484 148.869 90.7975 148.774 90.7778 148.67C90.2679 145.991 84.2674 110.248 121.117 82.61Z" fill="#0EA65D"/>
<path opacity="0.2" d="M121.117 82.61L145.282 71.573C145.282 71.573 186.222 56.0613 221.244 93.9255C221.244 93.9255 205.548 83.8257 193.651 97.167C193.651 97.167 171.264 91.0958 152.477 113.403C152.477 113.403 123.094 117.863 110.856 133.494C110.856 133.494 97.2123 131.391 91.7818 148.729C91.7551 148.813 91.7071 148.89 91.6425 148.951C91.5778 149.012 91.4987 149.055 91.4126 149.076C91.3265 149.098 91.2363 149.097 91.1507 149.074C91.0651 149.05 90.987 149.005 90.9237 148.943C90.8484 148.869 90.7975 148.774 90.7778 148.67C90.2679 145.991 84.2674 110.248 121.117 82.61Z" fill="black"/>
<path d="M128.477 128.341L138.539 130.022L141.893 114.051L133.787 110.689L128.477 128.341Z" fill="#2F2E41"/>
<path d="M142.312 125.119C147.098 125.119 150.977 121.23 150.977 116.433C150.977 111.636 147.098 107.747 142.312 107.747C137.527 107.747 133.647 111.636 133.647 116.433C133.647 121.23 137.527 125.119 142.312 125.119Z" fill="#A0616A"/>
<path d="M138.539 121.336C138.539 121.336 139.378 131.983 132.949 132.824C126.52 133.664 138.539 152.717 141.614 152.437C144.688 152.156 150.279 131.703 150.279 131.703C150.279 131.703 143.011 126.66 145.527 122.177L138.539 121.336Z" fill="#A0616A"/>
<path d="M127.778 160.142C127.778 160.142 128.896 168.267 132.25 168.267C135.604 168.267 130.014 159.021 130.014 159.021L127.778 160.142Z" fill="#A0616A"/>
<path d="M176.693 168.267C176.693 168.267 185.078 175.272 183.96 177.513C182.842 179.755 175.575 174.992 175.016 169.388L176.693 168.267Z" fill="#A0616A"/>
<path d="M126.1 195.165L120.79 215.058L114.92 239.154H120.51C120.51 239.154 122.467 231.589 126.1 227.666C126.1 227.666 129.734 221.502 129.734 217.299L138.399 196.846L126.1 195.165Z" fill="#A0616A"/>
<path d="M149.021 196.286L150.698 215.058C150.698 215.058 150.418 228.507 150.698 231.589C150.977 234.671 150.698 239.154 150.698 239.154H155.729C155.729 239.154 160.481 222.623 159.083 213.657L161.04 192.643L149.021 196.286Z" fill="#A0616A"/>
<path d="M142.312 144.732C142.312 144.732 134.781 138.749 136.73 130.393C136.73 130.393 129.175 130.722 126.1 133.804C123.026 136.886 126.939 147.253 126.939 147.253C126.939 147.253 133.647 158.461 132.529 163.504C131.411 168.547 119.392 195.165 123.305 196.846C127.218 198.527 150.977 204.411 162.996 194.604C162.996 194.604 166.071 166.866 153.772 157.9V150.896C153.772 150.896 156.008 148.934 154.89 143.891C154.89 143.891 159.642 135.205 156.847 133.524C154.052 131.843 147.631 129.38 147.631 129.38C147.631 129.38 148.182 141.93 142.312 144.732Z" fill="#2F2E41"/>
<path d="M127.778 133.804C127.778 133.804 124.144 133.244 120.511 138.567C116.877 143.891 107.373 152.296 111.846 156.499C116.318 160.702 128.337 163.504 128.337 163.504L131.132 158.461L119.113 152.577L129.175 145.012L127.778 133.804Z" fill="#2F2E41"/>
<path d="M155.45 133.804C155.45 133.804 159.363 133.804 161.04 138.567C162.717 143.331 172.5 159.581 172.5 159.581L178.09 168.267L174.177 172.75L163.276 160.422L152.934 143.331L155.45 133.804Z" fill="#2F2E41"/>
<path d="M121.628 238.593H113.802L112.125 252.322C112.125 252.322 107.653 259.607 114.361 258.767C121.069 257.926 118.833 250.361 118.833 250.361L120.51 247.559L121.069 253.443L121.628 253.163V246.719C121.628 246.719 124.703 243.917 121.628 238.593Z" fill="#2F2E41"/>
<path d="M157.127 238.593L149.859 238.033L148.462 253.723C148.462 253.723 147.623 259.607 152.654 258.767C157.686 257.926 156.008 253.163 156.008 253.163V244.477L157.127 238.593Z" fill="#2F2E41"/>
<path d="M136.023 107.607C136.023 107.607 131.951 108.968 131.744 114.341C131.723 115.2 131.819 116.059 132.027 116.893C132.256 117.867 132.404 119.963 130.627 122.701C129.437 124.51 128.35 126.384 127.371 128.315L127.358 128.341L131.831 128.901L132.782 121.47C133.243 117.868 134.23 114.353 135.713 111.038L135.744 110.969C135.744 110.969 137.7 114.612 141.614 114.612L140.216 113.211C140.216 113.211 146.365 115.732 148.601 115.732C148.601 115.732 150.278 116.853 148.601 118.534C146.924 120.215 143.57 124.138 145.527 127.22C147.483 130.302 145.806 131.143 145.806 131.143L148.881 129.461L150.278 128.621V129.742L157.546 128.901C157.546 128.901 159.502 128.621 155.31 123.858C155.31 123.858 154.203 122.008 154.687 120.413C155.085 119.2 155.19 117.91 154.992 116.649C154.053 111.397 150.368 100.954 136.023 107.607Z" fill="#2F2E41"/>
<path d="M179.732 177.016C182.498 174.197 179.435 168.358 179.195 167.914L147.608 103.258C147.511 103.062 147.342 102.913 147.136 102.843C146.93 102.773 146.704 102.787 146.509 102.883C146.314 102.979 146.164 103.148 146.093 103.355C146.022 103.561 146.036 103.787 146.131 103.983L177.734 168.671L177.743 168.688C177.774 168.745 180.824 174.552 178.108 176.216C175.182 178.009 171.771 175.104 171.737 175.074C171.655 175.003 171.56 174.949 171.457 174.915C171.355 174.881 171.247 174.867 171.139 174.875C171.031 174.883 170.926 174.912 170.829 174.96C170.732 175.009 170.646 175.076 170.576 175.158C170.505 175.24 170.451 175.335 170.417 175.438C170.383 175.541 170.37 175.65 170.378 175.758C170.386 175.866 170.415 175.971 170.464 176.068C170.512 176.165 170.58 176.251 170.661 176.322C170.838 176.475 175.027 180.036 178.965 177.622C179.245 177.452 179.502 177.249 179.732 177.016Z" fill="#3F3D56"/>
<path d="M118.858 77.9739L142.262 67.2843C142.262 67.2843 181.913 52.2611 215.832 88.9331C215.832 88.9331 200.63 79.1513 189.108 92.0726C189.108 92.0726 167.426 86.1926 149.23 107.797C149.23 107.797 120.772 112.117 108.919 127.256C108.919 127.256 95.2936 125.156 90.2076 142.803L89.504 142.109C89.504 142.109 81.7564 105.8 118.858 77.9739Z" fill="#0EA65D"/>
<path d="M118.973 77.9077C118.973 77.9077 107.513 116.573 108.911 127.22L118.973 77.9077Z" fill="#3F3D56"/>
<path d="M131.085 72.3894C131.085 72.3894 145.527 105.085 149.161 107.887L131.085 72.3894Z" fill="#3F3D56"/>
<path d="M142.173 67.2606C142.173 67.2606 179.348 89.6753 189.131 92.197L142.173 67.2606Z" fill="#3F3D56"/>
<path d="M86.2824 253.6C86.2152 253.49 84.6312 250.838 84.0821 245.333C83.5784 240.282 83.9023 231.769 88.3069 219.893C96.6514 197.396 86.3839 179.243 86.279 179.063L86.7855 178.768C86.8121 178.814 89.4615 183.442 91.0266 190.812C93.0947 200.582 92.3416 210.741 88.8558 220.098C80.5256 242.557 86.7186 253.189 86.7821 253.294L86.2824 253.6Z" fill="#3F3D56"/>
<path d="M83.0193 177.742C85.121 177.742 86.8248 176.034 86.8248 173.927C86.8248 171.82 85.121 170.112 83.0193 170.112C80.9176 170.112 79.2139 171.82 79.2139 173.927C79.2139 176.034 80.9176 177.742 83.0193 177.742Z" fill="#3F3D56"/>
<path d="M95.0213 191.826C97.123 191.826 98.8267 190.118 98.8267 188.012C98.8267 185.905 97.123 184.197 95.0213 184.197C92.9196 184.197 91.2158 185.905 91.2158 188.012C91.2158 190.118 92.9196 191.826 95.0213 191.826Z" fill="#3F3D56"/>
<path d="M86.825 201.216C88.9267 201.216 90.6304 199.508 90.6304 197.401C90.6304 195.295 88.9267 193.587 86.825 193.587C84.7233 193.587 83.0195 195.295 83.0195 197.401C83.0195 199.508 84.7233 201.216 86.825 201.216Z" fill="#0EA65D"/>
<path d="M96.7776 209.139C98.8793 209.139 100.583 207.431 100.583 205.324C100.583 203.217 98.8793 201.51 96.7776 201.51C94.6759 201.51 92.9722 203.217 92.9722 205.324C92.9722 207.431 94.6759 209.139 96.7776 209.139Z" fill="#0EA65D"/>
<path d="M83.8977 221.463C85.9994 221.463 87.7032 219.755 87.7032 217.648C87.7032 215.541 85.9994 213.833 83.8977 213.833C81.796 213.833 80.0923 215.541 80.0923 217.648C80.0923 219.755 81.796 221.463 83.8977 221.463Z" fill="#3F3D56"/>
<path d="M88.581 253.74C88.581 253.74 84.7756 244.35 96.1919 237.308L88.581 253.74Z" fill="#3F3D56"/>
<path d="M83.9012 253.57C83.9012 253.57 82.1693 243.584 68.7646 243.67L83.9012 253.57Z" fill="#3F3D56"/>
<path d="M60.7531 0L74.1478 7.34618L48.1949 24.576L35.7798 16.3663L60.7531 0Z" fill="#3F3D56"/>
<path d="M28.5416 23.3397L0 41.7842L13.2546 49.6807L41.7855 30.5884L28.5416 23.3397Z" fill="#3F3D56"/>
<path d="M33.7946 14.1853C32.2737 14.9277 30.9394 16.0044 29.891 17.3352C28.8426 18.6661 28.1071 20.2168 27.7393 21.8719C27.5939 22.4743 27.6188 23.1053 27.8115 23.6942C28.0041 24.2831 28.3567 24.8065 28.8297 25.2056L37.081 32.1908C37.6744 32.6921 38.4059 33.0006 39.1784 33.0753C39.9509 33.15 40.7277 32.9873 41.4058 32.609C44.7606 30.7442 50.1481 26.8295 47.7424 21.872C47.4735 21.3213 47.0622 20.853 46.5513 20.5159L37.3553 14.4203C36.8338 14.0733 36.2308 13.8691 35.6061 13.8279C34.9815 13.7867 34.357 13.9099 33.7946 14.1853Z" fill="#D0CDE1"/>
<path d="M58.7887 36.2058C63.2653 30.1789 63.5843 22.8226 59.5011 19.7752C55.4179 16.7277 48.4788 19.143 44.0021 25.1699C39.5255 31.1969 39.2066 38.5531 43.2898 41.6006C47.373 44.648 54.3121 42.2327 58.7887 36.2058Z" fill="#3F3D56"/>
<path opacity="0.2" d="M47.1936 41.4459C48.8666 42.6953 52.8455 40.2324 56.4223 35.8634C56.7391 35.4771 57.0523 35.0761 57.3618 34.6602C57.5885 34.3547 57.807 34.0492 58.0173 33.7438C61.3338 28.9403 62.6447 24.2285 60.9318 22.9502C59.2062 21.6617 55.031 24.3195 51.3708 28.9432C51.1664 29.2023 50.9641 29.4665 50.7637 29.736C50.0709 30.6672 49.4303 31.6362 48.8446 32.6385C46.4856 36.6976 45.7188 40.3444 47.1936 41.4459Z" fill="black"/>
<path d="M48.8447 32.6385L56.4224 35.8634L61.8442 38.1704L62.646 37.0857L58.0174 33.7438L51.3709 28.9432C51.1666 29.2022 50.9642 29.4665 50.7638 29.7359C50.071 30.6671 49.4304 31.6361 48.8447 32.6385Z" fill="#D0CDE1"/>
<path d="M63.3141 40.0207C64.2238 40.0207 64.9612 39.2815 64.9612 38.3696C64.9612 37.4578 64.2238 36.7186 63.3141 36.7186C62.4044 36.7186 61.667 37.4578 61.667 38.3696C61.667 39.2815 62.4044 40.0207 63.3141 40.0207Z" fill="#D0CDE1"/>
<path d="M63.7974 55.8108C63.9022 55.7147 64.031 55.6489 64.1701 55.6203C73.0417 53.7828 78.624 48.6625 81.2355 39.9673C81.296 39.7665 81.4335 39.5981 81.6178 39.4989C81.8021 39.3998 82.0181 39.378 82.2184 39.4385C82.4187 39.4989 82.5869 39.6366 82.686 39.8212C82.7851 40.0059 82.807 40.2224 82.7469 40.4233C79.9917 49.597 73.8491 55.2312 64.4894 57.1698C64.3201 57.2048 64.144 57.1831 63.9882 57.1081C63.8323 57.0331 63.7054 56.9089 63.6268 56.7546C63.5482 56.6002 63.5224 56.4243 63.5532 56.2538C63.584 56.0833 63.6698 55.9276 63.7975 55.8108H63.7974Z" fill="#0EA65D"/>
<path d="M61.6139 48.9266C61.7186 48.8305 61.8474 48.7646 61.9865 48.7361C68.6385 47.3582 72.8239 43.5192 74.7821 36.9995C74.8427 36.7989 74.9802 36.6305 75.1645 36.5314C75.3487 36.4324 75.5647 36.4107 75.765 36.4711C75.9652 36.5315 76.1333 36.6691 76.2324 36.8537C76.3316 37.0382 76.3535 37.2547 76.2936 37.4555C74.1827 44.4839 69.4767 48.8003 62.3058 50.2856C62.1365 50.3206 61.9604 50.299 61.8046 50.224C61.6487 50.149 61.5218 50.0248 61.4432 49.8704C61.3646 49.7161 61.3388 49.5401 61.3696 49.3696C61.4004 49.1991 61.4862 49.0435 61.6139 48.9266L61.6139 48.9266Z" fill="#0EA65D"/>
<path d="M67.023 62.8603C67.1278 62.7642 67.2566 62.6983 67.3957 62.6698C76.2491 60.8361 85.9307 51.9558 88.5368 43.2784C88.5974 43.0777 88.7349 42.9094 88.9192 42.8103C89.1035 42.7112 89.3194 42.6895 89.5197 42.7499C89.7199 42.8104 89.888 42.948 89.9871 43.1325C90.0863 43.3171 90.1082 43.5336 90.0483 43.7344C87.2952 52.9013 77.0678 62.2822 67.715 64.2193C67.5457 64.2543 67.3696 64.2327 67.2138 64.1577C67.0579 64.0827 66.931 63.9584 66.8524 63.8041C66.7738 63.6497 66.7479 63.4738 66.7788 63.3033C66.8096 63.1328 66.8954 62.9772 67.023 62.8603H67.023Z" fill="#0EA65D"/>
<path d="M231.247 0L217.852 7.34618L243.805 24.576L256.22 16.3663L231.247 0Z" fill="#3F3D56"/>
<path d="M263.459 23.3397L292 41.7842L278.745 49.6807L250.215 30.5884L263.459 23.3397Z" fill="#3F3D56"/>
<path d="M258.205 14.1853C259.726 14.9277 261.06 16.0044 262.109 17.3352C263.157 18.6661 263.893 20.2168 264.261 21.8719C264.406 22.4743 264.381 23.1053 264.188 23.6942C263.996 24.2831 263.643 24.8065 263.17 25.2056L254.919 32.1908C254.325 32.6921 253.594 33.0006 252.821 33.0753C252.049 33.15 251.272 32.9873 250.594 32.609C247.239 30.7442 241.852 26.8295 244.257 21.872C244.526 21.3213 244.938 20.853 245.449 20.5159L254.645 14.4203C255.166 14.0733 255.769 13.8691 256.394 13.8279C257.018 13.7867 257.643 13.9099 258.205 14.1853Z" fill="#D0CDE1"/>
<path d="M248.711 41.6006C252.794 38.5532 252.475 31.1969 247.998 25.17C243.522 19.1431 236.582 16.7278 232.499 19.7752C228.416 22.8227 228.735 30.1789 233.212 36.2059C237.688 42.2328 244.627 44.6481 248.711 41.6006Z" fill="#3F3D56"/>
<path opacity="0.2" d="M244.806 41.4459C243.133 42.6953 239.154 40.2324 235.578 35.8634C235.261 35.4771 234.948 35.0761 234.638 34.6602C234.411 34.3547 234.193 34.0492 233.983 33.7438C230.666 28.9403 229.355 24.2285 231.068 22.9502C232.794 21.6617 236.969 24.3195 240.629 28.9432C240.834 29.2023 241.036 29.4665 241.236 29.736C241.929 30.6672 242.57 31.6362 243.155 32.6385C245.514 36.6976 246.281 40.3444 244.806 41.4459Z" fill="black"/>
<path d="M243.155 32.6385L235.578 35.8634L230.156 38.1704L229.354 37.0857L233.983 33.7438L240.629 28.9432C240.833 29.2022 241.036 29.4665 241.236 29.7359C241.929 30.6671 242.57 31.6361 243.155 32.6385Z" fill="#D0CDE1"/>
<path d="M228.686 40.0207C229.596 40.0207 230.333 39.2815 230.333 38.3696C230.333 37.4578 229.596 36.7186 228.686 36.7186C227.777 36.7186 227.039 37.4578 227.039 38.3696C227.039 39.2815 227.777 40.0207 228.686 40.0207Z" fill="#D0CDE1"/>
<path d="M228.203 55.8108C228.098 55.7147 227.969 55.6489 227.83 55.6203C218.959 53.7828 213.376 48.6625 210.765 39.9673C210.704 39.7665 210.567 39.5981 210.383 39.4989C210.198 39.3998 209.982 39.378 209.782 39.4385C209.582 39.4989 209.413 39.6366 209.314 39.8212C209.215 40.0059 209.193 40.2224 209.253 40.4233C212.009 49.597 218.151 55.2312 227.511 57.1698C227.68 57.2048 227.856 57.1831 228.012 57.1081C228.168 57.0331 228.295 56.9089 228.374 56.7546C228.452 56.6002 228.478 56.4243 228.447 56.2538C228.416 56.0833 228.331 55.9276 228.203 55.8108H228.203Z" fill="#0EA65D"/>
<path d="M230.386 48.9266C230.281 48.8304 230.153 48.7646 230.014 48.7361C223.362 47.3582 219.176 43.5192 217.218 36.9995C217.157 36.7989 217.02 36.6305 216.836 36.5314C216.651 36.4324 216.435 36.4107 216.235 36.4711C216.035 36.5315 215.867 36.6691 215.768 36.8537C215.669 37.0382 215.647 37.2547 215.706 37.4555C217.817 44.4839 222.523 48.8003 229.694 50.2856C229.864 50.3206 230.04 50.299 230.196 50.224C230.351 50.149 230.478 50.0247 230.557 49.8704C230.635 49.7161 230.661 49.5401 230.631 49.3696C230.6 49.1991 230.514 49.0435 230.386 48.9266V48.9266Z" fill="#0EA65D"/>
<path d="M224.977 62.8603C224.872 62.7642 224.743 62.6983 224.604 62.6698C215.751 60.8361 206.069 51.9558 203.463 43.2784C203.402 43.0777 203.265 42.9094 203.081 42.8103C202.896 42.7112 202.68 42.6895 202.48 42.7499C202.28 42.8104 202.112 42.948 202.013 43.1325C201.914 43.3171 201.892 43.5336 201.952 43.7344C204.705 52.9013 214.932 62.2822 224.285 64.2193C224.454 64.2543 224.63 64.2327 224.786 64.1577C224.942 64.0827 225.069 63.9584 225.147 63.8041C225.226 63.6497 225.252 63.4738 225.221 63.3033C225.19 63.1328 225.104 62.9772 224.977 62.8603Z" fill="#0EA65D"/>
</g>
<defs>
<clipPath id="clip0">
<rect width="292" height="264" fill="white"/>
</clipPath>
</defs>
</svg>
