<svg width="276" height="315" viewBox="0 0 276 315" fill="none" xmlns="http://www.w3.org/2000/svg">
<g clip-path="url(#clip0)">
<g opacity="0.2">
<path opacity="0.2" d="M204.764 283.961C204.516 284.423 204.231 284.863 203.91 285.277C201.077 283.283 198.195 281.326 195.265 279.405L195.455 279.028C196.133 277.718 197.148 276.612 198.395 275.823C200.012 274.828 201.836 274.609 203.336 275.419C204.836 276.228 205.673 277.847 205.762 279.737C205.808 281.208 205.463 282.666 204.764 283.961Z" fill="#3F3D56"/>
<path opacity="0.2" d="M208.71 276.552C210.492 273.185 209.854 269.351 207.284 267.989C204.715 266.627 201.187 268.252 199.405 271.62C197.623 274.987 198.261 278.821 200.83 280.183C203.4 281.545 206.927 279.919 208.71 276.552Z" fill="#3F3D56"/>
<path opacity="0.2" d="M212.654 269.101C214.437 265.734 213.799 261.9 211.229 260.537C208.66 259.175 205.132 260.801 203.35 264.168C201.567 267.536 202.206 271.37 204.775 272.732C207.344 274.094 210.872 272.468 212.654 269.101Z" fill="#3F3D56"/>
<path opacity="0.2" d="M216.599 261.649C218.381 258.282 217.743 254.448 215.174 253.086C212.605 251.724 209.077 253.35 207.294 256.717C205.512 260.084 206.15 263.918 208.72 265.28C211.289 266.642 214.817 265.017 216.599 261.649Z" fill="#3F3D56"/>
<path opacity="0.2" d="M220.54 254.202C222.322 250.835 221.684 247.001 219.114 245.639C216.545 244.277 213.017 245.902 211.235 249.27C209.453 252.637 210.091 256.471 212.66 257.833C215.23 259.195 218.757 257.569 220.54 254.202Z" fill="#3F3D56"/>
<path opacity="0.2" d="M225.442 191.494C225.227 190.348 225.091 189.187 225.038 188.022L238.349 192.506L225.074 185.594C225.267 182.159 226.158 178.801 227.693 175.723C229.229 172.645 231.375 169.914 234.002 167.695L246.865 186.31L236.877 165.607C239.813 163.769 243.095 162.555 246.519 162.041C249.944 161.528 253.437 161.725 256.782 162.622C260.127 163.518 263.251 165.094 265.961 167.252C268.67 169.41 270.907 172.103 272.531 175.164C274.155 178.224 275.132 181.587 275.401 185.042C275.67 188.496 275.225 191.97 274.094 195.245C272.963 198.52 271.17 201.528 268.827 204.079C266.484 206.631 263.642 208.672 260.476 210.076C260.805 211.863 260.94 213.68 260.88 215.495L240.662 215.333L260.589 218.619C259.915 222.76 258.221 226.668 255.659 229.989C253.097 233.31 249.748 235.939 245.915 237.639C246.759 242.299 246.276 247.103 244.521 251.502C242.766 255.9 239.809 259.716 235.989 262.512C232.17 265.309 227.641 266.973 222.92 267.315C218.2 267.657 213.479 266.662 209.296 264.446C205.114 262.229 201.639 258.879 199.269 254.78C196.9 250.68 195.73 245.995 195.895 241.262C196.06 236.528 197.553 231.937 200.202 228.012C202.851 224.087 206.551 220.988 210.877 219.068C209.87 213.499 210.761 207.753 213.408 202.752C216.055 197.75 220.305 193.784 225.475 191.49L225.442 191.494Z" fill="#0EA65D"/>
<path opacity="0.1" d="M257.949 226.381C255.308 231.387 251.057 235.355 245.883 237.643C246.727 242.303 246.244 247.107 244.489 251.506C242.734 255.904 239.777 259.72 235.957 262.516C232.137 265.313 227.608 266.977 222.888 267.319C218.168 267.661 213.446 266.667 209.264 264.45C205.082 262.233 201.607 258.883 199.237 254.784C196.867 250.684 195.698 245.999 195.863 241.266C196.028 236.532 197.52 231.941 200.17 228.016C202.819 224.092 206.519 220.992 210.845 219.072C209.867 213.694 259.275 223.876 257.949 226.381Z" fill="black"/>
</g>
<g opacity="0.2">
<path opacity="0.2" d="M88.2643 251.859C88.5039 252.836 88.8273 253.79 89.2307 254.712C95.4605 252.324 101.762 250.031 108.134 247.832C108.078 247.573 108.021 247.306 107.957 247.023C107.31 244.255 105.938 241.71 103.982 239.65C101.438 237.028 98.1387 235.749 94.9645 236.526C91.7903 237.303 89.4531 239.953 88.3977 243.442C87.6035 246.185 87.5575 249.091 88.2643 251.859Z" fill="#3F3D56"/>
<path opacity="0.2" d="M97.4244 246.559C102.863 245.23 105.864 238.378 104.126 231.254C102.388 224.131 96.5701 219.433 91.1312 220.762C85.6923 222.091 82.692 228.943 84.4298 236.066C86.1677 243.19 91.9855 247.888 97.4244 246.559Z" fill="#3F3D56"/>
<path opacity="0.2" d="M93.5743 230.792C99.0132 229.463 102.014 222.611 100.276 215.487C98.5379 208.363 92.72 203.666 87.2811 204.995C81.8422 206.324 78.8419 213.176 80.5797 220.299C82.3176 227.423 88.1355 232.121 93.5743 230.792Z" fill="#3F3D56"/>
<path opacity="0.2" d="M89.7291 215.025C95.168 213.696 98.1683 206.844 96.4305 199.72C94.6927 192.596 88.8748 187.899 83.4359 189.228C77.997 190.557 74.9967 197.409 76.7345 204.532C78.4723 211.656 84.2902 216.353 89.7291 215.025Z" fill="#3F3D56"/>
<path opacity="0.2" d="M85.8844 199.262C91.3233 197.933 94.3236 191.081 92.5858 183.957C90.8479 176.833 85.03 172.136 79.5911 173.465C74.1523 174.794 71.152 181.646 72.8898 188.769C74.6276 195.893 80.4455 200.59 85.8844 199.262Z" fill="#3F3D56"/>
<path opacity="0.2" d="M93.2701 69.4856C94.1992 67.4442 94.9842 65.3401 95.6194 63.1889L68.7094 65.2568L96.7556 58.6161C98.0154 52.1133 97.9361 45.4217 96.5226 38.9507C95.1091 32.4796 92.3912 26.3652 88.535 20.9817L55.7335 49.6567L84.1437 15.7331C79.5312 10.9216 73.9785 7.11172 67.8313 4.54049C61.684 1.96927 55.0737 0.69176 48.4119 0.787478C41.75 0.883196 35.1791 2.35009 29.1081 5.09687C23.0372 7.84364 17.5961 11.8115 13.1235 16.7535C8.65088 21.6955 5.24251 27.5059 3.11051 33.823C0.97851 40.1402 0.168508 46.8288 0.7309 53.4728C1.29329 60.1167 3.21605 66.5737 6.3795 72.4419C9.54296 78.3101 13.8794 83.4638 19.119 87.5825C17.6704 90.7615 16.5708 94.0885 15.8396 97.505L53.6835 106.764L14.946 103.478C14.2419 111.534 15.5572 119.639 18.7726 127.059C21.988 134.478 27.002 140.977 33.3604 145.968C29.5861 154.268 28.2215 163.462 29.4226 172.501C30.6236 181.54 34.3419 190.058 40.1523 197.082C45.9627 204.105 53.6307 209.351 62.2796 212.219C70.9285 215.087 80.2093 215.461 89.0608 213.3C97.9124 211.138 105.977 206.527 112.334 199.994C118.69 193.461 123.082 185.27 125.006 176.358C126.93 167.445 126.31 158.17 123.215 149.594C120.121 141.018 114.678 133.486 107.507 127.859C112.018 117.941 113.067 106.793 110.485 96.2062C107.903 85.6194 101.84 76.2086 93.2701 69.4856Z" fill="#0EA65D"/>
<path opacity="0.1" d="M16.151 119.236C18.7174 129.825 24.7815 139.236 33.3605 145.944C29.5862 154.243 28.2215 163.438 29.4226 172.477C30.6237 181.516 34.342 190.034 40.1524 197.057C45.9628 204.081 53.6308 209.327 62.2797 212.195C70.9286 215.063 80.2093 215.437 89.0609 213.275C97.9124 211.114 105.977 206.503 112.334 199.97C118.691 193.437 123.082 185.246 125.006 176.334C126.93 167.421 126.31 158.146 123.215 149.57C120.121 140.993 114.678 133.461 107.508 127.835C111.871 118.269 14.8571 113.939 16.151 119.236Z" fill="black"/>
</g>
<path d="M226.959 68.3768H226.057V19.711C226.057 8.97914 217.23 0.286804 206.341 0.286804H95.8985C85.0092 0.286804 76.182 8.98723 76.182 19.711V39.8839H76.1133H75.9192C75.6142 39.8817 75.3209 40.0006 75.1033 40.2145C74.8858 40.4284 74.7619 40.7199 74.7587 41.025V50.7371C74.7619 51.0423 74.8858 51.3338 75.1033 51.5477C75.3209 51.7616 75.6142 51.8805 75.9192 51.8783H76.1335H76.2022V61.7968H75.8464C75.6956 61.7957 75.5461 61.8244 75.4063 61.8812C75.2666 61.938 75.1394 62.0217 75.032 62.1277C74.9246 62.2337 74.8391 62.3598 74.7804 62.4988C74.7218 62.6378 74.691 62.7871 74.6899 62.938V81.5083C74.6921 81.8135 74.815 82.1054 75.0318 82.3201C75.2485 82.5347 75.5415 82.6546 75.8464 82.6536H76.2022V89.9376H75.8949C75.7438 89.936 75.5938 89.9643 75.4536 90.0208C75.3134 90.0774 75.1857 90.1611 75.0779 90.2671C74.9701 90.3731 74.8843 90.4994 74.8253 90.6387C74.7664 90.778 74.7355 90.9275 74.7344 91.0788V109.831C74.7355 109.983 74.7664 110.132 74.8253 110.271C74.8843 110.411 74.9701 110.537 75.0779 110.643C75.1857 110.749 75.3134 110.833 75.4536 110.889C75.5938 110.946 75.7438 110.974 75.8949 110.972H76.2022V281.088C76.2022 291.82 85.0294 300.512 95.9187 300.512H206.337C217.226 300.512 226.053 291.812 226.053 281.088V104.773H226.959C227.264 104.775 227.557 104.656 227.775 104.442C227.992 104.228 228.116 103.937 228.119 103.632V69.5179C228.116 69.2128 227.992 68.9213 227.775 68.7074C227.557 68.4935 227.264 68.3746 226.959 68.3768Z" fill="url(#paint0_linear)"/>
<g opacity="0.9">
<path opacity="0.9" d="M225.204 69.5706H222.701C222.189 69.5706 221.775 69.9855 221.775 70.4973V104.587C221.775 105.099 222.189 105.514 222.701 105.514H225.204C225.715 105.514 226.13 105.099 226.13 104.587V70.4973C226.13 69.9855 225.715 69.5706 225.204 69.5706Z" fill="#E5E7EB"/>
<path opacity="0.9" d="M78.4828 41.4136H77.8884C77.377 41.4136 76.9624 41.8285 76.9624 42.3403V52.3195C76.9624 52.8313 77.377 53.2462 77.8884 53.2462H78.4828C78.9942 53.2462 79.4088 52.8313 79.4088 52.3195V42.3403C79.4088 41.8285 78.9942 41.4136 78.4828 41.4136Z" fill="#E5E7EB"/>
<path opacity="0.9" d="M78.7053 63.0757H77.7995C77.2881 63.0757 76.8735 63.4906 76.8735 64.0024V82.7427C76.8735 83.2545 77.2881 83.6694 77.7995 83.6694H78.7053C79.2167 83.6694 79.6312 83.2545 79.6312 82.7427V64.0024C79.6312 63.4906 79.2167 63.0757 78.7053 63.0757Z" fill="#E5E7EB"/>
<path opacity="0.9" d="M78.6163 90.8765H77.8439C77.3325 90.8765 76.918 91.2914 76.918 91.8032V110.722C76.918 111.233 77.3325 111.648 77.8439 111.648H78.6163C79.1277 111.648 79.5423 111.233 79.5423 110.722V91.8032C79.5423 91.2914 79.1277 90.8765 78.6163 90.8765Z" fill="#E5E7EB"/>
<path opacity="0.9" d="M208.358 2.31024H94.1111C85.4039 2.31024 78.3452 9.37435 78.3452 18.0884V283.039C78.3452 291.753 85.4039 298.817 94.1111 298.817H208.358C217.066 298.817 224.124 291.753 224.124 283.039V18.0884C224.124 9.37435 217.066 2.31024 208.358 2.31024Z" fill="white"/>
<path opacity="0.9" d="M155.97 11.1644H138.74C137.876 11.1644 137.175 11.8656 137.175 12.7305V13.7341C137.175 14.599 137.876 15.3002 138.74 15.3002H155.97C156.834 15.3002 157.535 14.599 157.535 13.7341V12.7305C157.535 11.8656 156.834 11.1644 155.97 11.1644Z" fill="#E5E7EB"/>
<path opacity="0.9" d="M162.953 15.5794C164.248 15.5794 165.298 14.5285 165.298 13.2323C165.298 11.936 164.248 10.8852 162.953 10.8852C161.658 10.8852 160.608 11.936 160.608 13.2323C160.608 14.5285 161.658 15.5794 162.953 15.5794Z" fill="#E5E7EB"/>
</g>
<path d="M203.546 10.0353H186.858V12.0587C186.857 14.5887 185.852 17.0148 184.064 18.8034C182.276 20.592 179.852 21.5968 177.324 21.5968H124.118C121.59 21.5968 119.166 20.592 117.378 18.8034C115.59 17.0148 114.585 14.5887 114.584 12.0587V10.0353H98.9269C95.8565 10.0353 92.9119 11.256 90.7408 13.4287C88.5698 15.6015 87.3501 18.5483 87.3501 21.6211V279.51C87.3501 282.583 88.5698 285.529 90.7408 287.702C92.9119 289.875 95.8565 291.096 98.9269 291.096H203.546C206.617 291.096 209.561 289.875 211.732 287.702C213.903 285.529 215.123 282.583 215.123 279.51V21.6211C215.123 18.5483 213.903 15.6015 211.732 13.4287C209.561 11.256 206.617 10.0353 203.546 10.0353Z" fill="#ECECF3"/>
<path d="M35.8029 309.12C48.5746 309.12 58.9282 307.368 58.9282 305.206C58.9282 303.045 48.5746 301.293 35.8029 301.293C23.0312 301.293 12.6777 303.045 12.6777 305.206C12.6777 307.368 23.0312 309.12 35.8029 309.12Z" fill="#0EA65D"/>
<path d="M45.366 298.805C46.3567 297.882 47.2867 296.781 47.5698 295.474C47.8528 294.167 47.2948 292.565 46.0292 292.083C44.6139 291.541 43.1016 292.52 41.9573 293.512C40.813 294.503 39.4948 295.636 37.9946 295.426C38.7695 294.724 39.3488 293.833 39.6757 292.84C40.0025 291.847 40.0655 290.785 39.8587 289.76C39.794 289.338 39.615 288.942 39.3411 288.615C38.5567 287.773 37.1333 288.134 36.1912 288.797C33.203 290.901 32.3659 294.968 32.3498 298.631C32.0465 297.307 32.3012 295.931 32.2931 294.584C32.2851 293.236 31.9171 291.727 30.7768 290.999C30.0641 290.617 29.2636 290.43 28.4558 290.456C27.1133 290.408 25.6253 290.541 24.6993 291.525C23.555 292.739 23.8542 294.798 24.8449 296.146C25.8356 297.494 27.3479 298.335 28.7389 299.266C29.7942 299.974 30.8658 300.8 31.5168 301.921C31.6024 302.071 31.6716 302.229 31.723 302.394H40.1458C42.039 301.438 43.7949 300.23 45.366 298.805Z" fill="#0EA65D"/>
<g opacity="0.4">
<path opacity="0.4" d="M251.229 285.912C258.518 285.912 264.427 284.912 264.427 283.678C264.427 282.444 258.518 281.444 251.229 281.444C243.939 281.444 238.03 282.444 238.03 283.678C238.03 284.912 243.939 285.912 251.229 285.912Z" fill="#0EA65D"/>
<path opacity="0.4" d="M256.683 280.024C257.285 279.533 257.725 278.871 257.945 278.126C258.107 277.369 257.783 276.463 257.063 276.188C256.255 275.88 255.393 276.438 254.738 276.997C254.083 277.555 253.335 278.211 252.478 278.09C252.921 277.689 253.252 277.18 253.439 276.612C253.626 276.044 253.661 275.438 253.541 274.852C253.505 274.612 253.403 274.386 253.246 274.201C252.797 273.719 251.985 273.925 251.451 274.302C249.744 275.516 249.267 277.827 249.255 279.915C249.085 279.162 249.231 278.377 249.227 277.604C249.223 276.831 249.009 275.985 248.358 275.556C247.951 275.34 247.495 275.234 247.035 275.249C246.267 275.22 245.418 275.297 244.888 275.856C244.237 276.556 244.407 277.725 244.973 278.494C245.539 279.263 246.4 279.745 247.197 280.275C247.831 280.655 248.373 281.172 248.782 281.788C248.831 281.874 248.87 281.965 248.899 282.059H253.711C254.789 281.518 255.789 280.834 256.683 280.024Z" fill="#0EA65D"/>
</g>
<g opacity="0.4">
<path opacity="0.4" d="M49.082 260.81C56.3712 260.81 62.2803 259.81 62.2803 258.576C62.2803 257.343 56.3712 256.342 49.082 256.342C41.7928 256.342 35.8838 257.343 35.8838 258.576C35.8838 259.81 41.7928 260.81 49.082 260.81Z" fill="#0EA65D"/>
<path opacity="0.4" d="M54.5407 254.922C55.1438 254.431 55.5826 253.768 55.7982 253.02C55.96 252.267 55.6405 251.361 54.9167 251.086C54.108 250.778 53.2467 251.337 52.5957 251.895C51.9447 252.454 51.1885 253.109 50.3354 252.988C50.777 252.586 51.1072 252.077 51.2935 251.509C51.4799 250.942 51.5162 250.336 51.3988 249.75C51.3606 249.51 51.2587 249.283 51.1036 249.095C50.6548 248.617 49.842 248.824 49.3042 249.2C47.5978 250.414 47.1207 252.721 47.1126 254.809C46.9388 254.056 47.0843 253.271 47.0803 252.498C47.0762 251.725 46.866 250.879 46.215 250.475C45.8082 250.255 45.3505 250.148 44.8887 250.163C44.1244 250.135 43.2712 250.212 42.7456 250.774C42.0945 251.474 42.2644 252.644 42.8305 253.413C43.3966 254.182 44.2579 254.659 45.0504 255.193C45.6864 255.571 46.2283 256.089 46.6355 256.707C46.6839 256.793 46.7245 256.884 46.7568 256.978H51.5646C52.6445 256.43 53.6455 255.738 54.5407 254.922Z" fill="#0EA65D"/>
</g>
<path d="M117.81 31.4465H97.1519V52.1212H117.81V31.4465Z" fill="#D6D8E0"/>
<path d="M176.337 32.9235H133.055V36.861H176.337V32.9235Z" fill="#D6D8E0"/>
<path d="M204.371 39.8151H133.055V43.7525H204.371V39.8151Z" fill="#D6D8E0"/>
<path d="M204.371 46.7067H133.055V50.6441H204.371V46.7067Z" fill="#D6D8E0"/>
<path d="M117.968 69.348H97.3096V90.0227H117.968V69.348Z" fill="#D6D8E0"/>
<path d="M176.495 70.8251H133.212V74.7625H176.495V70.8251Z" fill="#D6D8E0"/>
<path d="M204.529 77.7167H133.212V81.6541H204.529V77.7167Z" fill="#D6D8E0"/>
<path d="M204.529 84.6041H133.212V88.5415H204.529V84.6041Z" fill="#D6D8E0"/>
<path d="M118.126 107.25H97.4673V127.924H118.126V107.25Z" fill="#D6D8E0"/>
<path d="M176.657 108.723H133.375V112.66H176.657V108.723Z" fill="#D6D8E0"/>
<path d="M204.691 115.614H133.375V119.551H204.691V115.614Z" fill="#D6D8E0"/>
<path d="M204.691 122.506H133.375V126.443H204.691V122.506Z" fill="#D6D8E0"/>
<path d="M118.284 145.147H97.625V165.822H118.284V145.147Z" fill="#D6D8E0"/>
<path d="M176.814 146.624H133.532V150.561H176.814V146.624Z" fill="#D6D8E0"/>
<path d="M204.848 153.516H133.532V157.453H204.848V153.516Z" fill="#D6D8E0"/>
<path d="M204.848 160.407H133.532V164.345H204.848V160.407Z" fill="#D6D8E0"/>
<path d="M118.445 183.049H97.7866V203.723H118.445V183.049Z" fill="#D6D8E0"/>
<path d="M176.972 184.526H133.69V188.463H176.972V184.526Z" fill="#D6D8E0"/>
<path d="M205.006 191.417H133.69V195.354H205.006V191.417Z" fill="#D6D8E0"/>
<path d="M205.006 198.309H133.69V202.246H205.006V198.309Z" fill="#D6D8E0"/>
<path d="M118.603 220.95H97.9443V241.625H118.603V220.95Z" fill="#D6D8E0"/>
<path d="M177.13 222.427H133.847V226.364H177.13V222.427Z" fill="#D6D8E0"/>
<path d="M205.164 229.319H133.847V233.256H205.164V229.319Z" fill="#D6D8E0"/>
<path d="M205.164 236.21H133.847V240.148H205.164V236.21Z" fill="#D6D8E0"/>
<path d="M118.761 258.851H98.1021V279.526H118.761V258.851Z" fill="#D6D8E0"/>
<path d="M177.287 260.328H134.005V264.266H177.287V260.328Z" fill="#D6D8E0"/>
<path d="M205.321 267.22H134.005V271.158H205.321V267.22Z" fill="#D6D8E0"/>
<path d="M205.321 274.112H134.005V278.049H205.321V274.112Z" fill="#D6D8E0"/>
<path d="M239.276 93.7861H63.1982V137.592H239.276V93.7861Z" fill="url(#paint1_linear)"/>
<path d="M238.782 94.7735H64.1807V136.612H238.782V94.7735Z" fill="white"/>
<path d="M118.53 105.356H97.8716V126.03H118.53V105.356Z" fill="#0EA65D"/>
<g opacity="0.5">
<path opacity="0.5" d="M177.061 106.833H133.778V110.77H177.061V106.833Z" fill="#0EA65D"/>
<path opacity="0.5" d="M205.095 113.724H133.778V117.662H205.095V113.724Z" fill="#0EA65D"/>
<path opacity="0.5" d="M205.095 120.616H133.778V124.553H205.095V120.616Z" fill="#0EA65D"/>
</g>
<path d="M118.445 105.602H97.7866V126.277H118.445V105.602Z" fill="#0EA65D"/>
<path d="M110.908 123.214C110.609 123.791 110.112 124.242 109.509 124.484C109.152 124.615 108.777 124.686 108.397 124.695C107.987 124.725 107.575 124.674 107.184 124.545C106.664 124.34 106.217 123.984 105.902 123.521C105.591 123.059 105.341 122.558 105.158 122.032C105.035 121.77 104.984 121.479 105.009 121.19C105.167 121.171 105.32 121.121 105.458 121.042C105.597 120.964 105.719 120.859 105.817 120.733C105.875 120.607 105.907 120.47 105.911 120.331C105.914 120.191 105.889 120.053 105.837 119.924C105.813 119.843 105.789 119.766 105.761 119.693C105.7 119.515 105.49 119.179 105.635 119.029C105.781 118.88 106.121 118.884 106.254 118.823C106.649 118.587 107.072 118.398 107.511 118.261C107.91 118.207 108.316 118.234 108.704 118.337C108.757 118.346 108.808 118.365 108.854 118.394C108.905 118.437 108.943 118.493 108.963 118.556C109.076 118.831 109.141 119.135 109.23 119.418C109.308 119.715 109.461 119.987 109.675 120.207C109.859 120.364 110.068 120.49 110.293 120.579L110.835 120.826C110.93 120.864 111.017 120.92 111.09 120.992C111.159 121.09 111.201 121.204 111.211 121.324C111.312 121.97 111.206 122.631 110.908 123.214Z" fill="#A0616A"/>
<path opacity="0.1" d="M109.226 119.43C108.796 119.877 108.23 120.17 107.616 120.261C107.002 120.353 106.376 120.238 105.834 119.936C105.809 119.855 105.785 119.778 105.757 119.705C105.696 119.527 105.486 119.191 105.631 119.042C105.777 118.892 106.117 118.896 106.25 118.835C106.646 118.599 107.068 118.41 107.508 118.273C107.906 118.22 108.312 118.246 108.7 118.35C108.754 118.358 108.804 118.378 108.85 118.406C108.901 118.449 108.939 118.505 108.959 118.568C109.073 118.855 109.137 119.147 109.226 119.43Z" fill="black"/>
<path d="M107.204 120.171C108.754 120.171 110.01 118.913 110.01 117.362C110.01 115.811 108.754 114.554 107.204 114.554C105.654 114.554 104.398 115.811 104.398 117.362C104.398 118.913 105.654 120.171 107.204 120.171Z" fill="#A0616A"/>
<path d="M115.716 126.273H102.51C102.105 125.371 101.741 124.464 101.333 123.562C101.377 123.347 101.457 123.142 101.572 122.955C101.63 122.863 101.71 122.788 101.805 122.735C101.899 122.682 102.005 122.653 102.113 122.651C102.231 122.651 102.364 122.696 102.449 122.611C102.534 122.526 102.506 122.457 102.566 122.4C102.627 122.344 102.773 122.344 102.886 122.352C103.007 122.356 103.128 122.329 103.236 122.275C103.345 122.22 103.439 122.14 103.508 122.04C103.552 121.965 103.605 121.895 103.666 121.834C103.772 121.782 103.888 121.752 104.006 121.745C104.333 121.672 104.527 121.34 104.774 121.134C104.833 121.067 104.911 121.019 104.997 120.995C105.083 120.971 105.174 120.973 105.259 121C105.299 121.021 105.333 121.05 105.36 121.085C105.427 121.187 105.472 121.301 105.494 121.421C105.64 122.093 106.013 122.695 106.549 123.125C106.834 123.34 107.164 123.489 107.514 123.561C107.864 123.632 108.226 123.625 108.572 123.538C108.919 123.452 109.242 123.289 109.517 123.061C109.793 122.833 110.014 122.547 110.164 122.222C110.36 121.733 110.472 121.215 110.496 120.689C110.496 120.66 110.496 120.644 110.496 120.62C110.66 120.579 110.832 120.575 110.998 120.608C111.164 120.641 111.321 120.71 111.458 120.81C111.726 121.016 112.013 121.196 112.315 121.348C112.675 121.49 113.124 121.49 113.371 121.753C113.476 121.858 113.549 122.004 113.682 122.068C113.765 122.101 113.852 122.121 113.941 122.129C114.167 122.19 114.376 122.302 114.552 122.457C114.727 122.611 114.866 122.803 114.956 123.019C115.249 123.669 115.439 124.36 115.522 125.067L115.716 126.273Z" fill="#F86D70"/>
<path d="M105.267 112.806C105.072 112.964 104.906 113.156 104.778 113.372C104.537 113.77 104.201 114.101 103.799 114.335C103.631 114.394 103.478 114.49 103.351 114.615C103.288 114.709 103.248 114.817 103.233 114.93C103.151 115.323 103.109 115.723 103.108 116.124C103.093 116.326 103.126 116.528 103.205 116.715C103.286 116.885 103.44 117.03 103.468 117.217C103.474 117.364 103.457 117.511 103.419 117.654C103.4 117.728 103.405 117.807 103.431 117.879C103.458 117.951 103.506 118.014 103.569 118.058C103.642 118.084 103.718 118.102 103.795 118.111C104.2 118.2 104.337 118.677 104.398 119.07C104.535 119.07 104.596 118.904 104.628 118.775L105.033 116.893C105.081 116.69 105.154 116.452 105.36 116.383C105.502 116.353 105.648 116.353 105.789 116.383C106.347 116.432 106.816 115.999 107.362 115.877C107.538 115.844 107.717 115.833 107.896 115.845C108.324 115.845 108.826 116.043 108.919 116.444C108.919 116.508 108.943 116.589 109.004 116.622C109.066 116.64 109.132 116.64 109.194 116.622C109.464 116.593 109.626 116.901 109.707 117.152L109.99 118.07C110.035 118.208 110.107 118.374 110.257 118.39C110.325 118.39 110.391 118.364 110.443 118.319C110.494 118.274 110.527 118.211 110.536 118.143C110.542 118.006 110.523 117.869 110.479 117.739C110.346 117.14 110.552 116.525 110.678 115.922C110.803 115.319 110.823 114.627 110.403 114.161C110.249 113.995 110.047 113.87 109.905 113.692C109.764 113.514 109.699 113.324 109.562 113.158C109.012 112.676 108.327 112.376 107.6 112.3C106.789 112.228 105.976 112.404 105.267 112.806Z" fill="#3F3D56"/>
<g opacity="0.1">
<path opacity="0.1" d="M110.274 117.953C110.124 117.953 110.051 117.771 110.007 117.633L109.724 116.715C109.643 116.464 109.481 116.156 109.21 116.181C109.148 116.199 109.082 116.199 109.02 116.181C108.96 116.148 108.951 116.071 108.935 116.003C108.842 115.598 108.341 115.424 107.912 115.404C107.734 115.391 107.554 115.404 107.378 115.44C106.833 115.557 106.364 115.99 105.806 115.942C105.664 115.916 105.519 115.916 105.377 115.942C105.171 116.015 105.098 116.249 105.049 116.456C104.908 117.083 104.77 117.71 104.645 118.334C104.613 118.463 104.552 118.621 104.415 118.629C104.354 118.224 104.216 117.759 103.812 117.67C103.735 117.663 103.658 117.645 103.586 117.617C103.532 117.588 103.49 117.541 103.468 117.484C103.468 117.54 103.444 117.601 103.436 117.658C103.417 117.732 103.421 117.811 103.448 117.883C103.475 117.956 103.523 118.018 103.586 118.062C103.659 118.088 103.735 118.106 103.812 118.115C104.216 118.204 104.354 118.682 104.415 119.074C104.552 119.074 104.613 118.908 104.645 118.779C104.787 118.151 104.924 117.524 105.049 116.897C105.098 116.695 105.171 116.456 105.377 116.387C105.518 116.357 105.664 116.357 105.806 116.387C106.364 116.436 106.833 116.003 107.378 115.881C107.554 115.848 107.734 115.837 107.912 115.849C108.341 115.849 108.842 116.047 108.935 116.448C108.935 116.512 108.96 116.593 109.02 116.626C109.082 116.644 109.148 116.644 109.21 116.626C109.481 116.597 109.643 116.905 109.724 117.156L110.007 118.075C110.051 118.212 110.124 118.378 110.274 118.394C110.342 118.394 110.408 118.369 110.459 118.323C110.511 118.278 110.544 118.215 110.553 118.147C110.561 118.038 110.548 117.928 110.512 117.824C110.489 117.866 110.454 117.901 110.412 117.923C110.37 117.946 110.322 117.957 110.274 117.953Z" fill="black"/>
<path opacity="0.1" d="M103.468 116.788C103.44 116.601 103.286 116.456 103.205 116.286C103.152 116.171 103.121 116.048 103.112 115.922C103.112 115.99 103.112 116.055 103.112 116.124C103.097 116.326 103.131 116.528 103.209 116.715C103.274 116.852 103.387 116.974 103.444 117.119C103.473 117.011 103.481 116.899 103.468 116.788Z" fill="black"/>
<path opacity="0.1" d="M110.694 115.489C110.533 116.013 110.456 116.559 110.463 117.107C110.516 116.709 110.593 116.314 110.694 115.926C110.761 115.629 110.784 115.323 110.763 115.019C110.75 115.177 110.727 115.334 110.694 115.489Z" fill="black"/>
</g>
<path d="M103.565 126.273H100.415C100.554 125.424 100.803 124.597 101.155 123.813C101.183 123.732 101.228 123.659 101.288 123.598C101.301 123.584 101.316 123.572 101.333 123.562C101.426 123.489 101.555 123.461 101.656 123.392C101.758 123.323 101.77 123.25 101.863 123.222C102.213 123.214 102.561 123.271 102.89 123.392C102.983 123.402 103.074 123.425 103.161 123.461C103.366 123.574 103.519 123.763 103.589 123.987C103.856 124.711 103.654 125.496 103.565 126.273Z" fill="#F86D70"/>
<path d="M180.552 132.889C182.439 138.748 180.86 144.709 177.532 149.201C175.335 152.247 172.71 154.872 170.026 157.167C167.557 159.476 162.031 164.046 160.567 164.173C159.272 163.925 157.82 162.454 156.792 161.696C151.017 157.285 144.8 151.92 141.648 146.055C139.005 140.423 139 133.458 143.113 129.141C148.447 124.309 156.488 125.253 160.567 130.301C161.662 128.873 163.009 127.75 164.608 126.932C171.09 124.332 177.832 126.981 180.552 132.889Z" fill="#0EA65D"/>
<path d="M177.072 145.053H175.639V142.322C175.639 138.553 172.429 135.493 168.474 135.493C164.52 135.493 161.31 138.553 161.31 142.322V145.053H159.877C158.301 145.053 157.011 146.283 157.011 147.785V161.442C157.011 162.944 158.301 164.173 159.877 164.173H177.072C178.648 164.173 179.937 162.944 179.937 161.442V147.785C179.937 146.283 178.648 145.053 177.072 145.053ZM168.474 157.345C166.898 157.345 165.609 156.116 165.609 154.613C165.609 153.111 166.898 151.882 168.474 151.882C170.051 151.882 171.34 153.111 171.34 154.613C171.34 156.116 170.051 157.345 168.474 157.345ZM172.916 145.053H164.032V142.322C164.032 139.987 166.024 138.088 168.474 138.088C170.925 138.088 172.916 139.987 172.916 142.322V145.053Z" fill="black"/>
</g>
<path opacity="0.1" d="M106.199 315C133.438 315 155.52 312.856 155.52 310.211C155.52 307.566 133.438 305.421 106.199 305.421C78.9594 305.421 56.8774 307.566 56.8774 310.211C56.8774 312.856 78.9594 315 106.199 315Z" fill="#0EA65D"/>
<path d="M138.351 311.654C138.185 310.818 137.9 310.011 137.507 309.256L133.726 303.609H133.748C133.748 303.609 133.152 300.774 133.748 299.381C134.343 297.988 131.624 294.563 131.624 294.563C131.624 294.563 131.293 293.703 132.156 292.644C133.02 291.586 131.624 288.485 131.624 288.485C131.624 288.485 130.962 282.01 130.896 281.021C130.83 280.031 130.297 274.549 130.297 274.549L129.037 262.925L126.793 232.118L126.753 231.542C127.03 231.406 127.178 231.321 127.178 231.321L126.73 214.287L127.118 213.937C130.502 210.875 138.307 203.785 138.228 203.631C138.149 203.476 137.283 191.793 137.182 188.869C137.095 186.791 136.641 184.744 135.84 182.825C135.644 182.438 135.08 179.882 134.847 178.801C134.784 178.505 134.743 178.319 134.743 178.319C134.743 178.319 132.456 173.958 132.654 171.977C132.853 169.995 133.25 168.511 128.372 167.817C128.372 167.817 124.276 167.206 121.837 165.539C120.395 164.541 118.818 163.752 117.155 163.195C117.155 163.195 115.787 160.674 114.836 161.528C114.433 160.629 114.132 159.687 113.938 158.721L113.909 158.544C115.716 157.285 117.016 155.424 117.577 153.295C117.609 153.175 117.634 153.052 117.662 152.932C117.757 152.964 117.855 152.982 117.955 152.986C118.784 152.986 119.294 152.063 120.069 151.77C120.385 151.647 120.772 151.628 121.015 151.379C121.095 151.283 121.154 151.172 121.19 151.052C121.226 150.932 121.237 150.807 121.223 150.683C121.23 150.597 121.23 150.51 121.223 150.424C121.224 150.394 121.224 150.363 121.223 150.333V150.364C121.012 149.217 120.123 148.2 120.221 147.034C120.315 145.937 121.279 144.973 121.201 143.905C121.2 143.821 121.192 143.736 121.179 143.653V143.691C121.061 143.274 120.845 142.891 120.548 142.575C120.209 142.113 119.764 141.739 119.25 141.485C118.812 141.293 118.305 141.249 117.895 141.019C116.692 140.363 116.695 138.656 115.98 137.49C115.673 137.003 115.238 136.61 114.723 136.355C114.207 136.1 113.631 135.992 113.059 136.043C112.164 136.132 111.354 136.607 110.469 136.762C109.259 136.976 108.027 136.582 106.88 136.132C105.733 135.681 104.57 135.186 103.338 135.186C102.106 135.186 100.773 135.817 100.401 136.979C100.203 137.609 100.301 138.287 100.149 138.927C99.8783 140.055 98.8889 140.861 97.8649 141.422C97.2347 141.772 96.4848 142.172 96.2894 142.834C96.2894 142.815 96.2894 142.799 96.2894 142.783C96.2753 142.836 96.2648 142.89 96.2579 142.944C96.2516 143.014 96.2516 143.085 96.2579 143.155C96.2579 143.609 96.4974 144.04 96.6581 144.472C96.9575 145.293 96.9508 146.195 96.6392 147.012C96.406 147.61 96.009 148.137 95.7821 148.732C95.6752 149.01 95.6053 149.3 95.5742 149.596V149.545C95.5663 149.679 95.5663 149.814 95.5742 149.948C95.5703 150.409 95.6784 150.863 95.8892 151.272C96.0338 151.554 96.2335 151.805 96.4764 152.009C96.7194 152.213 97.0008 152.366 97.304 152.46C97.9342 152.605 98.3281 151.987 98.9929 152.145C99.1119 152.173 99.2287 152.21 99.3426 152.255C99.3647 152.397 99.3868 152.539 99.412 152.677C99.814 154.798 100.944 156.711 102.607 158.087C102.607 158.163 102.632 158.239 102.642 158.317C102.843 159.574 102.93 160.845 102.903 162.117C102.903 162.117 101.911 160.665 100.549 163.469C100.549 163.469 96.9984 165.517 95.7727 165.75C94.547 165.984 90.1955 167.499 90.1955 167.499C89.5392 167.974 88.7495 168.229 87.9395 168.227C86.5814 168.227 85.4534 171.198 85.6172 172.815C85.7811 174.431 85.5196 175.622 84.2561 175.688C82.9925 175.755 83.6826 178.316 83.692 178.36L83.5754 178.912C83.3297 180.04 82.794 182.46 82.605 182.838C81.8038 184.757 81.3483 186.803 81.2595 188.881C81.1618 191.805 80.3142 203.445 80.2166 203.643C80.1504 203.773 85.4975 208.66 89.2566 212.075L89.8017 212.567L88.0718 228.725C88.1222 229.347 88.3073 229.951 88.6141 230.495C88.9209 231.039 89.3423 231.51 89.8489 231.876C89.8489 232.065 89.8489 232.257 89.83 232.455C89.7544 234.346 89.6032 236.633 89.3007 237.232C88.7713 238.291 88.9037 243.969 88.9037 243.969C88.9037 243.969 88.3711 255.526 87.7094 256.784C87.0478 258.041 86.9123 260.678 87.1108 261.195C87.3093 261.712 86.4459 275.591 86.4459 275.591L85.7842 281.802C85.7842 281.802 85.9827 287.745 85.3841 287.877C84.7854 288.009 84.4545 292.105 84.4545 292.105C84.4545 292.105 82.334 295.011 83.2604 296.066C84.1867 297.122 83.1249 297.588 83.0272 297.85C82.9295 298.111 81.0043 299.11 82.397 302.803C82.4098 302.839 82.4245 302.875 82.4411 302.91C81.1366 304.722 77.0026 310.567 77.2547 311.455C77.4407 312.021 77.8351 312.494 78.3575 312.779C79.3312 313.362 81.0011 313.633 83.6574 312.779C88.0687 311.358 87.7536 310.334 87.7536 310.334C87.7762 309.855 87.9816 309.403 88.3274 309.071C88.6733 308.739 89.1333 308.553 89.6126 308.55C91.437 308.418 92.7982 306.735 92.7982 306.735L92.5839 305.938L92.2909 304.835C92.3256 304.52 92.5493 303.969 93.5513 303.663C95.0795 303.2 94.6793 300.295 94.6793 300.295C94.6793 300.295 94.5469 297.257 95.2086 296.86C95.8703 296.463 95.6088 291.444 95.6088 291.444C95.6088 291.444 96.3398 287.811 97.3985 285.366C98.4572 282.921 99.7239 268.395 99.7239 268.395C99.7239 268.395 100.584 261.261 101.381 259.213C102.178 257.165 102.909 251.421 102.909 251.421C102.909 251.421 107.822 241.908 107.885 239.794C107.885 239.794 108.515 237.812 109.145 239.992C109.775 242.173 111.546 247.391 111.546 247.391L113.27 253.797L115.327 263.372L116.657 271.432C116.657 271.432 116.455 274.47 116.972 275.528C117.489 276.587 118.232 279.026 117.835 279.489C117.438 279.952 118.629 282.133 118.963 282.593C119.297 283.053 118.963 292.83 118.963 292.83C118.963 292.83 120.488 301.152 122.678 302.598C122.831 302.698 122.994 302.783 123.164 302.85C123.132 303.751 123.101 304.958 123.142 305.588C123.137 305.729 123.16 305.869 123.211 306.001C123.409 306.266 125.665 308.049 126.132 308.049C126.598 308.049 128.252 309.206 128.322 309.766C128.391 310.327 133.171 312.703 133.848 312.772C134.526 312.842 137.809 313.431 138.26 312.508C138.371 312.238 138.403 311.941 138.351 311.654ZM126.608 192.637L126.948 192.93C126.948 192.93 127.298 195.656 127.547 196.472C127.795 197.288 127.496 198.876 127.496 198.876C127.519 199.469 127.637 200.054 127.846 200.609C128.142 201.205 127.247 202.5 127.247 202.5H126.45L126.201 192.297L126.608 192.637ZM102.903 162.174V162.114C102.897 162.133 102.894 162.155 102.894 162.174H102.903ZM90.6619 201.45C90.5392 201.186 90.5212 200.886 90.6115 200.609C90.6823 200.459 90.7382 200.303 90.7784 200.143C90.8764 199.729 90.9375 199.307 90.9612 198.882C90.9617 198.877 90.9617 198.872 90.9612 198.867C90.9328 198.715 90.6776 197.253 90.9139 196.478C91.1503 195.703 91.5095 192.936 91.5095 192.936L91.7363 192.744L92.2625 192.287C92.2625 192.287 92.2625 192.117 92.3003 191.837C92.4106 194.232 92.4989 196.878 92.3571 197.011C92.0924 197.272 91.1282 199.846 91.3614 199.947C91.437 199.982 91.333 201.012 91.1566 202.399C90.9584 202.101 90.7925 201.783 90.6619 201.45Z" fill="url(#paint2_linear)"/>
<path d="M116.058 164.692V168.611L108.017 172.654C108.017 172.654 100.033 167.824 102.002 165.901C103.262 164.685 103.02 161.345 102.679 159.048C102.481 157.712 102.251 156.732 102.251 156.732C102.251 156.732 116.594 152.636 114.426 155.746C113.701 156.786 113.645 158.131 113.887 159.464C114.379 162.108 116.058 164.692 116.058 164.692Z" fill="#C37098"/>
<path d="M94.0302 203.023L92.9935 215.79C92.9935 215.79 91.4401 214.382 89.4298 212.548C85.7023 209.148 80.4087 204.286 80.4717 204.157C80.5694 203.959 81.417 192.376 81.5084 189.464C81.5945 187.398 82.0447 185.363 82.8381 183.452C83.0271 183.074 83.5597 180.667 83.7834 179.542C83.859 179.192 83.9062 178.965 83.9062 178.965L85.6456 178.266C85.6456 178.266 92.8927 186.351 92.8927 186.499C92.8927 186.647 92.398 192.858 92.398 192.858L91.8844 193.305L91.6607 193.498C91.6607 193.498 91.3141 196.21 91.0683 197.023C90.8225 197.836 91.0872 199.248 91.1156 199.399C91.0924 199.824 91.0323 200.245 90.9359 200.66C90.8948 200.819 90.8389 200.974 90.769 201.123C90.6802 201.399 90.6981 201.698 90.8194 201.961C90.9594 202.326 91.1413 202.674 91.3613 202.998L94.0302 203.023Z" fill="#3F3D56"/>
<path d="M137.951 204.157C138.026 204.312 130.297 211.367 126.948 214.414L125.429 215.791L124.402 203.023H127.064C127.064 203.023 127.953 201.741 127.657 201.148C127.45 200.596 127.334 200.014 127.313 199.425C127.313 199.425 127.606 197.849 127.361 197.033C127.115 196.217 126.768 193.507 126.768 193.507L126.431 193.217L126.031 192.868C126.031 192.868 125.536 186.657 125.536 186.509C125.536 186.361 132.783 178.276 132.783 178.276L134.51 178.966C134.51 178.966 134.548 179.152 134.611 179.448C134.844 180.522 135.402 183.065 135.594 183.453C136.387 185.363 136.837 187.398 136.924 189.465C137.006 192.376 137.85 203.959 137.951 204.157Z" fill="#3F3D56"/>
<path d="M137.982 312.53C137.519 313.45 134.267 312.845 133.596 312.795C132.925 312.744 128.186 310.359 128.12 309.801C128.054 309.244 126.412 308.094 125.952 308.094C125.492 308.094 123.258 306.316 123.06 306.055C123.009 305.924 122.987 305.785 122.993 305.645C122.924 304.564 123.06 301.782 123.06 301.782L132.591 302.308L137.223 309.275C137.613 310.027 137.895 310.83 138.061 311.66C138.117 311.952 138.09 312.253 137.982 312.53Z" fill="#3F3D56"/>
<path opacity="0.1" d="M137.982 312.53C137.519 313.45 134.267 312.845 133.596 312.795C132.925 312.744 128.186 310.359 128.12 309.801C128.054 309.244 126.412 308.094 125.952 308.094C125.492 308.094 123.258 306.316 123.06 306.055C123.009 305.924 122.987 305.785 122.993 305.645C122.924 304.564 123.06 301.782 123.06 301.782L132.591 302.308L137.223 309.275C137.613 310.027 137.895 310.83 138.061 311.66C138.117 311.952 138.09 312.253 137.982 312.53Z" fill="black"/>
<path opacity="0.1" d="M137.982 312.53C137.519 313.45 134.267 312.845 133.596 312.794C132.925 312.744 128.186 310.359 128.12 309.801C128.054 309.243 126.412 308.093 125.952 308.093C125.492 308.093 123.258 306.316 123.059 306.055C123.009 305.924 122.987 305.785 122.993 305.645L126.081 307.599C126.081 307.599 128.054 308.859 128.58 309.606C129.106 310.352 133.253 311.906 133.596 311.937C133.851 311.963 136.574 311.439 138.061 311.66C138.117 311.952 138.09 312.253 137.982 312.53Z" fill="black"/>
<path d="M92.9241 306.779C92.9241 306.779 91.5755 308.456 89.7731 308.585C89.2975 308.588 88.8414 308.774 88.499 309.105C88.1566 309.435 87.954 309.884 87.933 310.359C87.933 310.359 88.2481 311.38 83.8904 312.795C81.2593 313.642 79.6051 313.374 78.6409 312.795C78.1235 312.509 77.733 312.039 77.5476 311.477C77.2514 310.428 83.068 302.441 83.068 302.441L88.3615 302.125L92.1426 303.833L92.7224 305.998L92.9241 306.779Z" fill="#3F3D56"/>
<path opacity="0.1" d="M92.9241 306.779C92.9241 306.779 91.5755 308.456 89.7731 308.585C89.2975 308.588 88.8414 308.774 88.499 309.105C88.1566 309.435 87.954 309.884 87.933 310.359C87.933 310.359 88.2481 311.38 83.8904 312.795C81.2593 313.642 79.6051 313.374 78.6409 312.795C78.1235 312.509 77.733 312.039 77.5476 311.477C77.2514 310.428 83.068 302.441 83.068 302.441L88.3615 302.125L92.1426 303.833L92.7224 305.998L92.9241 306.779Z" fill="black"/>
<path opacity="0.1" d="M92.9242 306.779C92.9242 306.779 91.5756 308.456 89.7733 308.585C89.2977 308.589 88.8416 308.775 88.4992 309.105C88.1568 309.435 87.9542 309.884 87.9332 310.359C87.9332 310.359 88.2483 311.38 83.8905 312.795C81.2595 313.642 79.6053 313.374 78.6411 312.795C81.1209 312.536 86.6003 310.97 87.1486 310.428C87.8071 309.77 88.6295 307.961 89.1872 307.93C89.5748 307.904 91.5441 306.72 92.7257 305.985L92.9242 306.779Z" fill="black"/>
<path d="M133.511 299.45C132.918 300.83 133.511 303.657 133.511 303.657C133.511 303.657 124.688 304.117 122.533 302.671C120.378 301.224 118.853 292.941 118.853 292.941C118.853 292.941 119.168 283.214 118.853 282.754C118.538 282.294 117.34 280.126 117.734 279.666C118.128 279.206 117.419 276.773 116.88 275.721C116.341 274.668 116.565 271.647 116.565 271.647L115.248 263.624L113.213 254.096L111.483 247.719C111.483 247.719 109.709 242.526 109.107 240.358C108.505 238.19 107.869 240.159 107.869 240.159C107.806 242.264 102.941 251.73 102.941 251.73C102.941 251.73 102.216 257.449 101.428 259.484C100.64 261.52 99.7834 268.622 99.7834 268.622C99.7834 268.622 98.523 283.081 97.4832 285.514C96.4434 287.946 95.7281 291.56 95.7281 291.56C95.7281 291.56 95.9928 296.558 95.3343 296.952C94.6757 297.346 94.7829 300.37 94.7829 300.37C94.7829 300.37 95.1767 303.26 93.6643 303.723C92.1518 304.186 92.4039 305.169 92.4039 305.169C92.4039 305.169 83.991 306.549 82.6109 302.866C81.2307 299.183 83.1371 298.203 83.241 297.938C83.345 297.673 84.3943 297.216 83.4742 296.161C82.5541 295.105 84.6558 292.219 84.6558 292.219C84.6558 292.219 84.9867 288.145 85.5759 288.013C86.1651 287.88 85.9729 281.966 85.9729 281.966L86.6283 275.787C86.6283 275.787 87.4853 261.983 87.2868 261.457C87.0883 260.93 87.2207 258.306 87.8792 257.045C88.5377 255.785 89.0608 244.29 89.0608 244.29C89.0608 244.29 88.9285 238.641 89.4547 237.588C89.7698 236.993 89.9021 234.702 89.9777 232.834C90.0344 231.406 90.047 230.225 90.047 230.225L97.4076 227.464L106.86 224.443L114.813 228.255L126.45 230.489L126.595 232.496L128.816 263.158L130.076 274.725C130.076 274.725 130.603 280.179 130.669 281.166C130.735 282.152 131.39 288.595 131.39 288.595C131.39 288.595 132.77 291.683 131.916 292.736C131.063 293.788 131.39 294.626 131.39 294.626C131.39 294.626 134.103 298.07 133.511 299.45Z" fill="#3F3D56"/>
<path opacity="0.1" d="M114.432 155.746C113.708 156.786 113.651 158.131 113.894 159.464C112.238 160.632 110.244 161.224 108.219 161.148C106.194 161.073 104.25 160.334 102.686 159.045C102.487 157.709 102.257 156.729 102.257 156.729C102.257 156.729 116.6 152.639 114.432 155.746Z" fill="black"/>
<path d="M117.785 151.726C117.785 153.552 117.244 155.337 116.229 156.855C115.215 158.373 113.773 159.556 112.086 160.255C110.399 160.954 108.543 161.137 106.752 160.781C104.961 160.424 103.316 159.545 102.025 158.254C100.734 156.963 99.8544 155.318 99.4982 153.527C99.142 151.736 99.3248 149.88 100.024 148.193C100.722 146.506 101.906 145.064 103.424 144.049C104.942 143.035 106.727 142.494 108.553 142.494C109.767 142.488 110.97 142.722 112.093 143.184C113.216 143.646 114.236 144.326 115.094 145.185C115.953 146.043 116.632 147.063 117.094 148.186C117.556 149.309 117.791 150.512 117.785 151.726Z" fill="#C37098"/>
<path opacity="0.1" d="M119.707 167.068L116.682 220.933L100.25 217.482L96.9951 195.889L100.219 166.901L102.645 167.213L106.924 167.758L111.162 168.019L115.756 167.509L119.707 167.068Z" fill="black"/>
<path d="M119.707 167.461L116.682 221.326L100.25 217.876L96.9951 196.283L100.219 167.298L102.645 167.606L106.924 168.152L111.162 168.413L115.756 167.903L119.707 167.461Z" fill="#0EA65D"/>
<path d="M106.199 168.908L112.116 169.106L110.452 171.435C110.452 171.435 110.569 176.139 111.36 177.488C112.151 178.836 111.918 199.67 111.918 199.67L110.342 202.661L107.648 199.308L107.683 171.8L106.199 168.908Z" fill="#3F3D56"/>
<path opacity="0.1" d="M106.199 168.908L112.116 169.106L110.452 171.435C110.452 171.435 110.569 176.139 111.36 177.488C112.151 178.836 111.918 199.67 111.918 199.67L110.342 202.661L107.648 199.308L107.683 171.8L106.199 168.908Z" fill="black"/>
<path opacity="0.1" d="M115.466 162.795L109.945 168.908L113.099 172.194L118.327 167.099L115.466 162.795Z" fill="black"/>
<path d="M115.466 162.401L109.945 168.514L113.099 171.8L118.327 166.705L115.466 162.401Z" fill="#0EA65D"/>
<path opacity="0.1" d="M107.613 168.612L102.024 163.025L101.498 165.949L104.062 172.358L107.613 168.612Z" fill="black"/>
<path d="M107.809 168.218L102.222 162.631L101.696 165.555L104.261 171.964L107.809 168.218Z" fill="#0EA65D"/>
<path opacity="0.1" d="M126.623 232.506C123.94 233.784 121.066 234.615 118.116 234.967C112.693 235.657 109.145 228.756 109.145 228.756L107.075 231.45C106.416 234.311 96.3931 235.033 92.3189 233.949C91.4736 233.74 90.6786 233.364 89.981 232.843C90.0377 231.416 90.0503 230.234 90.0503 230.234L97.4108 227.474L106.864 224.452L114.817 228.265L126.453 230.499L126.623 232.506Z" fill="black"/>
<path opacity="0.1" d="M119.707 167.465L116.685 221.326L100.25 217.876L96.9888 196.286L100.209 167.298L102.635 167.613C102.573 168.669 102.454 169.72 102.279 170.764C101.885 172.607 104.318 185.686 104.318 185.686C104.318 185.686 108.94 200.354 111.02 198.24C113.099 196.125 116.061 184.962 116.061 184.962C118.068 180.821 116.096 169.207 115.948 168.974C115.845 168.63 115.781 168.276 115.759 167.918L119.707 167.465Z" fill="black"/>
<path opacity="0.1" d="M126.806 209.145L126.945 214.423L125.426 215.8L124.402 203.023H126.671L126.806 209.145Z" fill="black"/>
<path opacity="0.1" d="M91.1187 199.409C91.0955 199.833 91.0354 200.255 90.9391 200.669C90.9391 200.552 90.9391 200.486 90.9139 200.477C90.8194 200.452 90.9328 199.969 91.1187 199.409Z" fill="black"/>
<path opacity="0.1" d="M94.03 203.023L92.9934 215.79C92.9934 215.79 91.44 214.382 89.4297 212.548L89.6692 210.286C89.6692 210.286 90.5168 204.728 90.8255 201.986C90.9656 202.352 91.1474 202.699 91.3675 203.023H94.03Z" fill="black"/>
<path d="M102.944 162.826C102.944 162.826 101.961 161.38 100.613 164.172C100.613 164.172 97.0961 166.21 95.8861 166.44C94.6762 166.67 90.372 168.183 90.372 168.183C89.722 168.653 88.9401 168.905 88.138 168.905C86.7894 168.905 85.6708 171.863 85.8347 173.473C85.9985 175.083 85.737 176.268 84.4892 176.334C83.2415 176.401 83.9284 178.994 83.9284 178.994L92.2437 188.525C92.2437 188.525 92.7699 197.301 92.5083 197.565C92.2468 197.83 91.2921 200.401 91.5221 200.489C91.7521 200.578 90.2617 210.282 90.2617 210.282L88.2577 229.115C88.2577 229.115 88.2577 232.266 92.335 233.353C96.4123 234.441 106.442 233.722 107.088 230.861L109.158 228.164C109.158 228.164 112.706 235.068 118.128 234.378C123.551 233.687 127.005 231.715 127.005 231.715L126.412 209.145L126.018 192.877L134.485 178.965C134.485 178.965 132.216 174.627 132.415 172.664C132.613 170.701 133.004 169.213 128.174 168.523C128.174 168.523 124.099 167.915 121.698 166.255C120.272 165.264 118.712 164.479 117.067 163.923C117.067 163.923 115.712 161.402 114.77 162.266C114.77 162.266 115.715 165.829 115.636 166.362C115.557 166.894 115.784 169.302 115.932 169.55C116.08 169.799 118.053 181.398 116.046 185.538C116.046 185.538 113.1 196.702 111.004 198.816C108.909 200.93 104.302 186.263 104.302 186.263C104.302 186.263 101.87 173.18 102.264 171.34C102.657 169.5 102.944 162.826 102.944 162.826Z" fill="#3F3D56"/>
<path d="M109.977 205.915C110.776 205.915 111.423 205.268 111.423 204.469C111.423 203.67 110.776 203.023 109.977 203.023C109.178 203.023 108.531 203.67 108.531 204.469C108.531 205.268 109.178 205.915 109.977 205.915Z" fill="#3F3D56"/>
<path d="M109.977 212.734C110.776 212.734 111.423 212.086 111.423 211.287C111.423 210.489 110.776 209.841 109.977 209.841C109.178 209.841 108.531 210.489 108.531 211.287C108.531 212.086 109.178 212.734 109.977 212.734Z" fill="#3F3D56"/>
<path opacity="0.1" d="M109.977 205.915C110.776 205.915 111.423 205.268 111.423 204.469C111.423 203.67 110.776 203.023 109.977 203.023C109.178 203.023 108.531 203.67 108.531 204.469C108.531 205.268 109.178 205.915 109.977 205.915Z" fill="black"/>
<path opacity="0.1" d="M109.977 212.734C110.776 212.734 111.423 212.086 111.423 211.287C111.423 210.489 110.776 209.841 109.977 209.841C109.178 209.841 108.531 210.489 108.531 211.287C108.531 212.086 109.178 212.734 109.977 212.734Z" fill="black"/>
<path opacity="0.1" d="M122.975 297.478C122.975 297.478 128.911 297.938 129.5 298.398C130.089 298.858 122.975 297.478 122.975 297.478Z" fill="black" stroke="#0EA65D" stroke-miterlimit="10"/>
<path opacity="0.1" d="M87.6309 292.811C87.6309 292.811 88.8912 294.387 88.3556 295.111C87.8199 295.836 87.6309 292.811 87.6309 292.811Z" fill="black" stroke="#0EA65D" stroke-miterlimit="10"/>
<path opacity="0.1" d="M89.1431 298.492C89.1431 298.492 91.4432 296.98 92.3633 297.985C93.2834 298.99 89.1431 298.492 89.1431 298.492Z" fill="black" stroke="#0EA65D" stroke-miterlimit="10"/>
<path opacity="0.1" d="M117.785 151.726C117.787 152.514 117.687 153.298 117.489 154.061C117.294 153.972 117.132 153.826 117.022 153.643C116.913 153.459 116.863 153.247 116.877 153.033C116.918 152.659 117.167 152.315 117.114 151.943C117.035 151.37 116.342 151.137 115.976 150.683C115.526 150.135 115.623 149.337 115.661 148.628C115.699 147.92 115.519 147.053 114.854 146.81C114.656 146.738 114.438 146.732 114.246 146.65C113.723 146.429 113.563 145.78 113.213 145.333C112.513 144.431 111.124 144.45 110.062 144.879C109.6 145.1 109.126 145.298 108.644 145.471C108.402 145.556 108.146 145.591 107.89 145.572C107.635 145.553 107.386 145.481 107.16 145.361C106.952 145.229 106.785 145.046 106.571 144.914C105.859 144.485 104.926 144.914 104.308 145.465C103.691 146.016 103.196 146.757 102.418 147.094C102.068 147.252 101.636 147.346 101.472 147.686C101.391 147.872 101.357 148.074 101.372 148.276C101.372 149.501 101.517 150.746 101.261 151.946C101.097 152.718 100.556 153.594 99.7709 153.5C99.6732 153.485 99.5771 153.461 99.4842 153.427C99.248 152.165 99.2777 150.868 99.5712 149.618C99.8648 148.368 100.416 147.193 101.189 146.168C101.962 145.144 102.941 144.291 104.062 143.666C105.184 143.041 106.423 142.656 107.701 142.537C108.98 142.418 110.269 142.566 111.486 142.973C112.704 143.38 113.823 144.037 114.773 144.901C115.722 145.765 116.481 146.818 117.001 147.992C117.521 149.166 117.79 150.436 117.791 151.72L117.785 151.726Z" fill="black"/>
<path d="M99.0718 152.904C99.3081 152.958 99.5318 153.081 99.7745 153.112C100.559 153.207 101.101 152.331 101.265 151.559C101.52 150.358 101.388 149.114 101.378 147.888C101.361 147.687 101.394 147.484 101.476 147.299C101.656 146.959 102.087 146.864 102.421 146.707C103.184 146.366 103.682 145.642 104.312 145.078C104.942 144.513 105.859 144.098 106.571 144.526C106.782 144.652 106.952 144.841 107.16 144.974C107.388 145.092 107.637 145.163 107.892 145.182C108.148 145.2 108.405 145.167 108.647 145.084C109.136 144.939 109.593 144.684 110.062 144.491C111.115 144.063 112.507 144.047 113.213 144.942C113.563 145.393 113.724 146.039 114.247 146.259C114.439 146.341 114.656 146.35 114.855 146.423C115.52 146.672 115.69 147.532 115.661 148.241C115.633 148.95 115.539 149.747 115.976 150.295C116.342 150.743 117.035 150.976 117.114 151.556C117.164 151.928 116.919 152.274 116.878 152.646C116.868 152.784 116.886 152.923 116.931 153.054C116.976 153.185 117.046 153.306 117.138 153.41C117.229 153.514 117.341 153.598 117.466 153.658C117.59 153.719 117.726 153.754 117.864 153.761C118.683 153.761 119.19 152.845 119.956 152.551C120.271 152.429 120.652 152.41 120.901 152.161C120.994 152.041 121.059 151.903 121.093 151.755C121.127 151.608 121.128 151.455 121.097 151.307C120.942 150.1 119.975 149.051 120.079 147.841C120.177 146.681 121.251 145.67 121.024 144.529C120.909 144.109 120.692 143.723 120.394 143.404C120.056 142.947 119.616 142.574 119.109 142.317C118.671 142.128 118.163 142.084 117.763 141.854C116.572 141.202 116.575 139.5 115.873 138.341C115.571 137.862 115.143 137.475 114.636 137.222C114.13 136.97 113.563 136.862 112.999 136.91C112.113 136.999 111.31 137.468 110.434 137.626C109.234 137.84 108.017 137.446 106.88 136.995C105.742 136.545 104.592 136.05 103.373 136.05C102.153 136.05 100.833 136.68 100.461 137.834C100.266 138.464 100.364 139.138 100.212 139.771C99.9477 140.896 98.9521 141.697 97.9501 142.254C97.26 142.639 96.4313 143.08 96.3494 143.864C96.2958 144.362 96.57 144.81 96.7433 145.292C97.038 146.107 97.0313 147.001 96.7244 147.813C96.4943 148.408 96.1099 148.931 95.8768 149.523C95.7113 149.925 95.633 150.358 95.6471 150.793C95.6613 151.227 95.7674 151.654 95.9587 152.044C96.1055 152.329 96.309 152.581 96.5566 152.784C96.8043 152.987 97.0908 153.137 97.3987 153.226C98.0194 153.374 98.4101 152.759 99.0718 152.904Z" fill="#3F3D56"/>
<g opacity="0.1">
<path opacity="0.1" d="M101.265 150.872C101.101 151.643 100.556 152.519 99.7714 152.425C99.5288 152.393 99.3082 152.271 99.0687 152.217C98.4102 152.072 98.0195 152.69 97.3987 152.532C97.0904 152.444 96.8035 152.293 96.5553 152.09C96.3072 151.887 96.1031 151.635 95.9556 151.35C95.7908 151.03 95.6912 150.68 95.6626 150.32C95.5998 150.878 95.7017 151.442 95.9556 151.943C96.1031 152.228 96.3072 152.479 96.5553 152.682C96.8035 152.886 97.0904 153.036 97.3987 153.124C98.0289 153.269 98.4102 152.652 99.0687 152.809C99.2993 152.89 99.5338 152.958 99.7714 153.014C100.556 153.112 101.101 152.236 101.265 151.464C101.394 150.782 101.445 150.087 101.416 149.394C101.413 149.89 101.362 150.385 101.265 150.872Z" fill="black"/>
<path opacity="0.1" d="M96.9479 146.126C96.9881 145.61 96.9172 145.091 96.74 144.604C96.5974 144.281 96.4764 143.948 96.3776 143.609C96.3641 143.662 96.3536 143.715 96.3461 143.769C96.2925 144.264 96.5698 144.715 96.74 145.197C96.85 145.496 96.9199 145.809 96.9479 146.126Z" fill="black"/>
<path opacity="0.1" d="M121.021 144.465C120.873 145.36 120.148 146.202 120.076 147.144C120.058 147.305 120.058 147.468 120.076 147.629C120.233 146.529 121.207 145.556 121.021 144.465Z" fill="black"/>
<path opacity="0.1" d="M121.075 151.114C121.048 151.246 120.986 151.368 120.895 151.467C120.662 151.716 120.265 151.735 119.95 151.858C119.184 152.151 118.69 153.077 117.858 153.068C117.645 153.056 117.44 152.979 117.272 152.849C117.103 152.718 116.978 152.54 116.913 152.337C116.893 152.405 116.879 152.475 116.868 152.545C116.859 152.683 116.878 152.821 116.923 152.952C116.968 153.083 117.038 153.203 117.13 153.307C117.221 153.41 117.333 153.494 117.457 153.554C117.581 153.615 117.717 153.649 117.855 153.657C118.677 153.657 119.181 152.74 119.947 152.45C120.262 152.327 120.646 152.308 120.892 152.06C120.985 151.94 121.05 151.802 121.084 151.654C121.118 151.507 121.119 151.354 121.087 151.206C121.084 151.168 121.078 151.143 121.075 151.114Z" fill="black"/>
<path opacity="0.1" d="M117.123 150.853C117.045 150.279 116.351 150.046 115.986 149.592C115.762 149.294 115.64 148.932 115.639 148.559C115.614 149.145 115.624 149.744 115.986 150.185C116.348 150.626 116.9 150.815 117.076 151.269C117.121 151.135 117.137 150.993 117.123 150.853Z" fill="black"/>
<path opacity="0.1" d="M115.658 147.554C115.683 146.845 115.513 145.978 114.848 145.736C114.653 145.663 114.435 145.654 114.243 145.575C113.72 145.354 113.556 144.705 113.21 144.258C112.507 143.36 111.117 143.376 110.059 143.804C109.586 143.996 109.136 144.252 108.644 144.396C108.402 144.482 108.146 144.516 107.89 144.497C107.635 144.478 107.386 144.406 107.16 144.286C106.952 144.154 106.782 143.971 106.571 143.839C105.855 143.41 104.923 143.839 104.308 144.39C103.694 144.942 103.196 145.679 102.418 146.019C102.065 146.177 101.636 146.271 101.454 146.612C101.373 146.797 101.34 146.999 101.356 147.201C101.356 147.324 101.356 147.447 101.356 147.569C101.36 147.442 101.391 147.318 101.447 147.204C101.63 146.864 102.059 146.769 102.412 146.612C103.174 146.271 103.672 145.547 104.302 144.983C104.932 144.419 105.849 144.003 106.564 144.431C106.776 144.557 106.946 144.746 107.154 144.875C107.38 144.996 107.628 145.068 107.884 145.087C108.14 145.106 108.396 145.072 108.638 144.986C109.119 144.814 109.592 144.618 110.052 144.396C111.108 143.968 112.498 143.949 113.203 144.847C113.55 145.294 113.714 145.944 114.237 146.164C114.429 146.246 114.647 146.256 114.842 146.328C115.381 146.53 115.595 147.135 115.642 147.733L115.658 147.554Z" fill="black"/>
</g>
<g opacity="0.1">
<path opacity="0.1" d="M100.14 150.853C100.158 150.33 100.345 149.827 100.673 149.419C101.002 149.012 101.454 148.722 101.961 148.594C103.366 148.25 104.84 148.317 106.208 148.786C109.198 149.775 105.83 153.336 105.83 153.336C105.83 153.336 103.59 155.541 101.501 154.001C100.884 153.534 100.452 152.865 100.281 152.11C100.179 151.699 100.131 151.276 100.14 150.853Z" fill="black"/>
<path opacity="0.1" d="M116.578 150.853C116.559 150.33 116.372 149.826 116.043 149.419C115.714 149.011 115.261 148.722 114.753 148.594C113.349 148.251 111.876 148.318 110.509 148.786C107.519 149.775 110.887 153.336 110.887 153.336C110.887 153.336 113.124 155.542 115.217 154.001C115.834 153.535 116.266 152.865 116.436 152.11C116.538 151.699 116.586 151.277 116.578 150.853Z" fill="black"/>
<path opacity="0.1" d="M105.645 148.496V148.644H111.105V148.468L105.645 148.496Z" fill="black"/>
<path opacity="0.1" d="M107.387 150.075H107.56V149.574C107.56 149.574 108.114 149.142 109.035 149.574V150.021H109.35V149.728H109.195C109.195 149.728 109.258 149.12 108.231 149.217C108.231 149.217 107.405 149.139 107.424 149.662H107.235L107.387 150.075Z" fill="black"/>
</g>
<path d="M100.14 150.648C100.158 150.125 100.345 149.622 100.673 149.215C101.002 148.807 101.454 148.518 101.961 148.389C103.366 148.048 104.84 148.115 106.208 148.581C109.199 149.574 105.83 153.131 105.83 153.131C105.83 153.131 103.59 155.337 101.501 153.796C100.883 153.331 100.45 152.661 100.281 151.905C100.179 151.494 100.131 151.072 100.14 150.648Z" fill="#0EA65D"/>
<path d="M116.578 150.648C116.56 150.125 116.372 149.622 116.043 149.214C115.714 148.807 115.262 148.517 114.754 148.389C113.35 148.048 111.877 148.114 110.51 148.581C107.519 149.574 110.888 153.131 110.888 153.131C110.888 153.131 113.125 155.337 115.217 153.796C115.835 153.331 116.268 152.661 116.436 151.905C116.539 151.495 116.587 151.072 116.578 150.648Z" fill="#0EA65D"/>
<path d="M105.645 148.297V148.449H111.105V148.269L105.645 148.297Z" fill="#0EA65D"/>
<path d="M107.387 149.876H107.56V149.375C107.56 149.375 108.114 148.947 109.035 149.375V149.826H109.35V149.53H109.195C109.195 149.53 109.258 148.925 108.231 149.019C108.231 149.019 107.405 148.944 107.424 149.463H107.235L107.387 149.876Z" fill="#0EA65D"/>
<defs>
<linearGradient id="paint0_linear" x1="151.397" y1="300.52" x2="151.397" y2="0.266563" gradientUnits="userSpaceOnUse">
<stop stop-color="#808080" stop-opacity="0.25"/>
<stop offset="0.54" stop-color="#808080" stop-opacity="0.12"/>
<stop offset="1" stop-color="#808080" stop-opacity="0.1"/>
</linearGradient>
<linearGradient id="paint1_linear" x1="65694.3" y1="14959.7" x2="65694.3" y2="10217.3" gradientUnits="userSpaceOnUse">
<stop stop-color="#808080" stop-opacity="0.25"/>
<stop offset="0.54" stop-color="#808080" stop-opacity="0.12"/>
<stop offset="1" stop-color="#808080" stop-opacity="0.1"/>
</linearGradient>
<linearGradient id="paint2_linear" x1="57806.3" y1="152382" x2="57806.3" y2="51668.1" gradientUnits="userSpaceOnUse">
<stop stop-color="#808080" stop-opacity="0.25"/>
<stop offset="0.54" stop-color="#808080" stop-opacity="0.12"/>
<stop offset="1" stop-color="#808080" stop-opacity="0.1"/>
</linearGradient>
<clipPath id="clip0">
<rect width="274.963" height="310.828" fill="white" transform="translate(0.518555 0.266602)"/>
</clipPath>
</defs>
</svg>
