<svg width="12" height="15" viewBox="0 0 12 15" fill="none" xmlns="http://www.w3.org/2000/svg">
<path d="M10.5 5H9.75V3.57143C9.75 1.6 8.07 0 6 0C3.93 0 2.25 1.6 2.25 3.57143V5H1.5C0.675 5 0 5.64286 0 6.42857V13.5714C0 14.3571 0.675 15 1.5 15H10.5C11.325 15 12 14.3571 12 13.5714V6.42857C12 5.64286 11.325 5 10.5 5ZM6 11.4286C5.175 11.4286 4.5 10.7857 4.5 10C4.5 9.21429 5.175 8.57143 6 8.57143C6.825 8.57143 7.5 9.21429 7.5 10C7.5 10.7857 6.825 11.4286 6 11.4286ZM8.325 5H3.675V3.57143C3.675 2.35 4.7175 1.35714 6 1.35714C7.2825 1.35714 8.325 2.35 8.325 3.57143V5Z" fill="black"/>
</svg>
