<svg width="364" height="265" viewBox="0 0 364 265" fill="none" xmlns="http://www.w3.org/2000/svg">
<g opacity="0.17" clip-path="url(#clip0)">
<path d="M260.884 187.892L162.134 164.142V350L260.884 324.187V187.892Z" fill="#E0E0E0"/>
<path opacity="0.1" d="M260.884 187.892L162.134 164.142V350L260.884 324.187V187.892Z" fill="black"/>
<path d="M63.3833 187.892L162.133 164.142V350L63.3833 324.704V187.892Z" fill="#E0E0E0"/>
<path opacity="0.17" d="M63.3833 187.068L162.133 163.322V350L63.3833 324.704V187.068Z" fill="black"/>
<path d="M161.309 164.965L213.319 121.807L312.065 147.107L260.059 188.711L161.309 164.965Z" fill="#E0E0E0"/>
<path d="M13.5398 148.443L64.2083 188.711L162.954 164.965L112.807 122.63L13.5398 148.443Z" fill="#E0E0E0"/>
<path opacity="0.05" d="M12.7195 147.624L64.6185 188.711L163.369 164.965L111.982 121.807L12.7195 147.624Z" fill="black"/>
<path d="M63.3833 187.892V324.704L162.133 350L163.467 214.221L63.3833 187.892Z" fill="#E0E0E0"/>
<path d="M260.884 324.187L162.134 350V214.221L260.884 187.892V324.187Z" fill="#E0E0E0"/>
<path opacity="0.07" d="M260.884 324.187L162.134 350V214.221L260.884 187.892V324.187Z" fill="black"/>
<path opacity="0.1" d="M62.0923 258.879L117.412 272.819L161.877 236.678V214.477L63.127 189.698L62.0923 258.879Z" fill="black"/>
<path opacity="0.1" d="M261.657 258.879L206.337 272.819L161.877 236.678V214.477L260.623 189.698L261.657 258.879Z" fill="black"/>
<path d="M120.824 185.751L124.651 184.988C124.651 184.988 121.435 188.581 120.824 188.809C120.767 189.573 120.767 190.34 120.824 191.104C113.474 222.608 86.3662 208.692 86.3662 208.692C96.2426 208.92 97.0863 204.871 97.0863 204.871C91.344 204.029 90.1928 200.282 90.1928 200.282C90.7079 200.553 91.3049 200.625 91.8698 200.484C92.4347 200.343 92.9279 200 93.255 199.519C87.0514 197.913 87.895 191.872 87.895 191.872C88.967 192.803 90.6496 193.17 91.647 193.324C90.9572 192.481 85.1217 185.523 88.6594 181.93C88.6594 181.93 92.9474 189.577 104.203 190.266L104.968 190.112C104.838 189.562 104.786 188.997 104.814 188.432C104.814 186.303 105.661 184.261 107.169 182.755C108.677 181.249 110.722 180.404 112.854 180.404C118.214 180.404 119.379 183.461 119.379 183.461L123.206 181.167C123.122 181.162 122.74 184.988 120.824 185.751Z" fill="#00ACED"/>
<path d="M63.3833 187.892L12.7195 229.711L111.465 254.49L162.134 214.221L63.3833 187.892Z" fill="#E0E0E0"/>
<path d="M198.004 184.732L199.896 182.102C199.896 182.102 199.98 186.105 199.738 186.594C200.136 187.091 200.57 187.558 201.038 187.99C214.447 211.299 190.071 218.178 190.071 218.178C196.205 212.727 194.42 209.8 194.42 209.8C190.43 212.523 187.633 210.894 187.633 210.894C188.1 210.767 188.503 210.472 188.766 210.067C189.03 209.662 189.134 209.174 189.06 208.697C184.399 211.229 181.462 207.082 181.462 207.082C182.637 207.035 183.877 206.314 184.566 205.844C183.672 205.723 176.177 204.787 176.284 200.608C176.284 200.608 183.229 202.828 190.463 196.884L190.84 196.358C190.448 196.099 190.095 195.786 189.791 195.428C189.193 194.787 188.727 194.035 188.419 193.214C188.112 192.393 187.969 191.52 188 190.644C188.031 189.769 188.234 188.908 188.598 188.11C188.962 187.313 189.48 186.595 190.122 185.998C193.385 182.963 195.813 184.174 195.813 184.174L196.839 180.613C196.797 180.646 198.731 183.182 198.004 184.732Z" fill="#0EA65D"/>
<path d="M260.884 187.892L312.065 229.711L213.832 254.49L162.134 214.221L260.884 187.892Z" fill="#E0E0E0"/>
<path opacity="0.07" d="M260.884 187.892L312.065 229.711L213.832 254.49L162.134 214.221L260.884 187.892Z" fill="black"/>
<path d="M194.401 56.9448L197.901 55.2646C197.901 55.2646 195.692 59.5233 195.156 59.8956C195.29 60.6457 195.48 61.3846 195.724 62.1064C196.438 94.2766 166.874 87.5559 166.874 87.5559C176.447 85.3404 176.256 81.2261 176.256 81.2261C170.514 81.8311 168.482 78.508 168.482 78.508C169.046 78.6482 169.642 78.5727 170.154 78.2962C170.665 78.0198 171.055 77.5624 171.246 77.014C164.869 77.014 164.189 70.9634 164.189 70.9634C165.447 71.5825 167.167 71.5359 168.165 71.4289C167.293 70.7866 159.962 65.518 162.469 61.1895C162.469 61.1895 168.496 67.5007 179.509 65.3783L180.208 65.0432C179.947 64.5449 179.757 64.0122 179.644 63.4608C179.383 62.4446 179.325 61.3871 179.473 60.3485C179.621 59.3098 179.973 58.3106 180.508 57.4077C181.043 56.5048 181.751 55.716 182.591 55.0863C183.431 54.4567 184.388 53.9985 185.405 53.738C190.57 52.4162 192.434 55.0785 192.434 55.0785L195.557 51.9229C195.477 51.9555 196.055 55.7347 194.401 56.9448Z" fill="#00ACED"/>
<path d="M34.2901 81.4495L38.098 80.6908C38.098 80.6908 34.9007 84.2653 34.2901 84.4933C34.2333 85.2525 34.2333 86.0148 34.2901 86.7739C26.9771 118.111 0.013916 104.269 0.013916 104.269C9.83906 104.497 10.678 100.467 10.678 100.467C4.96377 99.629 3.82186 95.9009 3.82186 95.9009C4.33319 96.1768 4.92928 96.2519 5.49322 96.1116C6.05715 95.9712 6.54822 95.6255 6.87008 95.1423C0.685079 93.5505 1.52404 87.5558 1.52404 87.5558C2.59138 88.4867 4.26464 88.8497 5.25275 89.0033C4.5676 88.1656 -1.22122 81.2447 2.28377 77.6702C2.28377 77.6702 6.54847 85.2753 17.7486 85.9594L18.5083 85.8058C18.378 85.2574 18.3263 84.6933 18.3545 84.1303C18.3551 83.0807 18.5629 82.0415 18.966 81.0721C19.3691 80.1028 19.9596 79.2223 20.7037 78.4809C21.4478 77.7396 22.3309 77.152 23.3026 76.7518C24.2743 76.3515 25.3155 76.1464 26.3666 76.1483C31.6986 76.1483 32.8405 79.1921 32.8405 79.1921L36.6485 76.9116C36.5599 76.9069 36.1824 80.7094 34.2901 81.4495Z" fill="#00ACED"/>
<path d="M372.782 13.8278L378.995 12.5851C378.995 12.5851 373.775 18.4169 372.782 18.7893C372.689 20.0287 372.689 21.2733 372.782 22.5127C360.85 73.6396 316.852 51.0526 316.852 51.0526C332.88 51.4249 334.251 44.8484 334.251 44.8484C324.929 43.4847 323.065 37.4016 323.065 37.4016C323.901 37.8411 324.87 37.9574 325.787 37.7281C326.703 37.4989 327.503 36.9402 328.033 36.1589C317.966 33.5526 319.336 23.7507 319.336 23.7507C321.074 25.24 323.81 25.8591 325.423 26.1104C324.304 24.7467 314.861 13.4508 320.576 7.61904C320.576 7.61904 327.534 20.0273 345.8 21.1443L347.045 20.8976C346.834 20.0032 346.751 19.0833 346.798 18.1656C346.798 14.7093 348.173 11.3946 350.62 8.95063C353.068 6.50667 356.387 5.13367 359.848 5.13367C368.545 5.13367 370.41 10.0951 370.41 10.0951L376.623 6.3717C376.511 6.38101 375.891 12.5665 372.782 13.8278Z" fill="#00ACED"/>
<path d="M271.24 3.59774L273.813 3.08577C273.813 3.08577 271.65 5.50133 271.24 5.65492C271.202 6.16773 271.202 6.68268 271.24 7.19548C266.3 28.3723 248.08 19.0173 248.08 19.0173C254.722 19.1709 255.286 16.4481 255.286 16.4481C251.427 15.885 250.653 13.3624 250.653 13.3624C250.999 13.5456 251.401 13.5947 251.781 13.5002C252.162 13.4057 252.493 13.1743 252.713 12.8504C248.546 11.7706 249.11 7.73072 249.11 7.73072C249.853 8.26679 250.721 8.60334 251.632 8.70811C251.166 8.14495 247.255 3.46742 249.623 1.05186C249.623 1.05186 252.503 6.17155 260.073 6.63697L260.585 6.53458C260.498 6.1643 260.463 5.78353 260.483 5.40359C260.482 4.69403 260.621 3.9912 260.892 3.33536C261.163 2.67951 261.561 2.08355 262.063 1.58159C262.566 1.07964 263.162 0.681564 263.819 0.410168C264.475 0.138772 265.179 -0.000611262 265.89 2.015e-06C269.492 2.015e-06 270.266 2.05718 270.266 2.05718L272.839 0.516625C272.783 0.51197 272.527 3.08577 271.24 3.59774Z" fill="#00ACED"/>
<path opacity="0.3" d="M154.406 106.387L156.979 105.875C156.979 105.875 154.816 108.291 154.406 108.444C154.367 108.957 154.367 109.472 154.406 109.985C149.465 131.162 131.246 121.807 131.246 121.807C137.888 121.96 138.452 119.237 138.452 119.237C134.592 118.674 133.819 116.152 133.819 116.152C134.165 116.335 134.567 116.384 134.947 116.289C135.327 116.195 135.659 115.964 135.879 115.64C131.712 114.56 132.276 110.52 132.276 110.52C133.019 111.056 133.887 111.393 134.797 111.497C134.331 110.934 130.421 106.257 132.789 103.841C132.789 103.841 135.669 108.961 143.238 109.426L143.751 109.324C143.664 108.954 143.629 108.573 143.648 108.193C143.648 106.762 144.218 105.39 145.231 104.378C146.244 103.367 147.618 102.799 149.05 102.799C152.653 102.799 153.427 104.856 153.427 104.856L156 103.315C155.939 103.324 155.692 105.875 154.406 106.387Z" fill="#535461"/>
<path opacity="0.3" d="M254.75 58.5924L257.323 58.0804C257.323 58.0804 255.183 60.5053 254.75 60.6449C254.712 61.1577 254.712 61.6727 254.75 62.1855C249.809 83.3624 231.59 74.0073 231.59 74.0073C238.232 74.1609 238.796 71.4382 238.796 71.4382C234.937 70.875 234.163 68.3524 234.163 68.3524C234.509 68.5356 234.911 68.5847 235.291 68.4902C235.671 68.3957 236.003 68.1643 236.223 67.8404C232.056 66.7606 232.62 62.7207 232.62 62.7207C233.363 63.2568 234.231 63.5934 235.142 63.6981C234.676 63.135 230.765 58.4574 233.133 56.0419C233.133 56.0419 236.013 61.1616 243.583 61.627L244.095 61.5246C244.008 61.1543 243.973 60.7735 243.993 60.3936C243.993 58.963 244.562 57.5909 245.575 56.5793C246.588 55.5677 247.962 54.9993 249.395 54.9993C252.998 54.9993 253.771 57.0565 253.771 57.0565L256.344 55.516C256.316 55.5066 256.055 58.0758 254.75 58.5924Z" fill="#00ACED"/>
<path d="M206.184 144.636L211.534 143.565C211.534 143.565 207.037 148.592 206.184 148.908C206.104 149.976 206.104 151.048 206.184 152.115C195.906 196.158 158.009 176.703 158.009 176.703C171.819 177.025 172.998 171.36 172.998 171.36C164.967 170.183 163.364 164.947 163.364 164.947C164.085 165.326 164.92 165.427 165.711 165.229C166.501 165.032 167.191 164.55 167.647 163.876C158.978 161.633 160.153 153.172 160.153 153.172C161.654 154.456 164.007 154.987 165.396 155.201C164.431 154.023 156.298 144.296 161.201 139.274C161.201 139.274 167.195 149.979 182.935 150.91L184.007 150.695C183.825 149.926 183.753 149.135 183.793 148.345C183.792 146.871 184.083 145.411 184.647 144.048C185.212 142.686 186.04 141.448 187.084 140.406C188.128 139.363 189.368 138.536 190.732 137.972C192.096 137.408 193.558 137.118 195.035 137.119C202.53 137.119 204.133 141.396 204.133 141.396L209.502 138.231C209.395 138.231 208.859 143.57 206.184 144.636Z" fill="#0EA65D"/>
<path d="M148.179 47.5977L150.733 47.0858C150.733 47.0858 148.57 49.5013 148.16 49.6549C148.122 50.1677 148.122 50.6827 148.16 51.1955C143.219 72.3723 125 63.0173 125 63.0173C131.642 63.1709 132.206 60.4481 132.206 60.4481C128.347 59.885 127.573 57.3624 127.573 57.3624C127.919 57.5456 128.321 57.5947 128.701 57.5002C129.081 57.4057 129.413 57.1743 129.633 56.8504C125.466 55.7706 126.03 51.7307 126.03 51.7307C126.773 52.2668 127.641 52.6033 128.552 52.7081C128.085 52.1449 124.175 47.4674 126.543 45.0519C126.543 45.0519 129.423 50.1715 136.992 50.637L137.505 50.5346C137.418 50.1643 137.383 49.7835 137.403 49.4036C137.401 48.694 137.54 47.9912 137.812 47.3354C138.083 46.6795 138.481 46.0835 138.983 45.5816C139.485 45.0796 140.082 44.6816 140.738 44.4102C141.395 44.1388 142.099 43.9994 142.809 44C146.412 44 147.186 46.0572 147.186 46.0572L149.759 44.5166C149.726 44.5166 149.47 47.0858 148.179 47.5977Z" fill="#0EA65D"/>
<path d="M89.5542 69.3856L92.127 68.8737C92.127 68.8737 89.9644 71.2892 89.5542 71.4428C89.5159 71.9556 89.5159 72.4706 89.5542 72.9834C84.6137 94.1602 66.3943 84.8052 66.3943 84.8052C73.0361 84.9588 73.6 82.236 73.6 82.236C69.7408 81.6729 68.9671 79.1503 68.9671 79.1503C69.3133 79.3335 69.7151 79.3826 70.0953 79.2881C70.4755 79.1936 70.8074 78.9622 71.0272 78.6383C66.8604 77.5585 67.4243 73.5186 67.4243 73.5186C68.1672 74.0547 69.0354 74.3912 69.9459 74.496C69.4798 73.9328 65.5693 69.2553 67.937 66.8398C67.937 66.8398 70.8175 71.9594 78.3867 72.4249L78.8994 72.3225C78.812 71.9522 78.7775 71.5714 78.7969 71.1915C78.7969 69.7608 79.366 68.3888 80.3791 67.3772C81.3922 66.3655 82.7662 65.7972 84.1989 65.7972C87.8017 65.7972 88.5755 67.8544 88.5755 67.8544L91.1483 66.3138C91.097 66.2999 90.8406 68.883 89.5542 69.3856Z" fill="#0EA65D"/>
<path opacity="0.3" d="M67.937 32.3797L70.5098 31.8677C70.5098 31.8677 68.3472 34.2833 67.937 34.4369C67.8987 34.9497 67.8987 35.4646 67.937 35.9774C62.9965 57.1543 44.7771 47.7992 44.7771 47.7992C51.4189 47.9528 51.9828 45.2301 51.9828 45.2301C48.1236 44.6669 47.3499 42.1443 47.3499 42.1443C47.6961 42.3276 48.0979 42.3767 48.4781 42.2822C48.8583 42.1877 49.1902 41.9563 49.41 41.6323C45.2432 40.5526 45.8072 36.5127 45.8072 36.5127C46.55 37.0487 47.4182 37.3853 48.3287 37.4901C47.8626 36.9269 43.9521 32.2494 46.3199 29.8338C46.3199 29.8338 49.2003 34.9535 56.7696 35.4189L57.2822 35.3165C57.1948 34.9463 57.1603 34.5655 57.1797 34.1855C57.1797 32.7549 57.7489 31.3828 58.7619 30.3712C59.775 29.3596 61.149 28.7913 62.5817 28.7913C66.1846 28.7913 66.9583 30.8484 66.9583 30.8484L69.5311 29.3079C69.4798 29.2939 69.2467 31.8677 67.937 32.3797Z" fill="#0EA65D"/>
<path d="M158.521 189.135L161.094 188.623C161.094 188.623 158.931 191.039 158.521 191.192C158.483 191.705 158.483 192.22 158.521 192.733C153.581 213.91 135.361 204.554 135.361 204.554C142.003 204.708 142.567 201.985 142.567 201.985C138.708 201.422 137.934 198.9 137.934 198.9C138.28 199.083 138.682 199.132 139.062 199.037C139.443 198.943 139.774 198.712 139.994 198.388C135.827 197.308 136.391 193.268 136.391 193.268C137.134 193.804 138.002 194.141 138.913 194.245C138.447 193.682 134.536 189.005 136.904 186.589C136.904 186.589 139.785 191.709 147.354 192.174L147.866 192.072C147.779 191.701 147.745 191.321 147.764 190.941C147.764 189.51 148.333 188.138 149.346 187.126C150.359 186.115 151.733 185.547 153.166 185.547C156.769 185.547 157.542 187.604 157.542 187.604L160.115 186.063C160.069 186.054 159.808 188.623 158.521 189.135Z" fill="#535461"/>
<path d="M308.709 77.5865L313.943 76.5392C313.943 76.5392 309.534 81.4681 308.695 81.7799C308.617 82.8272 308.617 83.8789 308.695 84.9262C298.614 128.122 261.448 109.04 261.448 109.04C275.006 109.375 276.162 103.79 276.162 103.79C268.285 102.636 266.715 97.4974 266.715 97.4974C267.421 97.8642 268.238 97.9602 269.011 97.7673C269.783 97.5744 270.459 97.1059 270.909 96.4502C262.403 94.2487 263.559 85.9641 263.559 85.9641C265.027 87.2208 267.339 87.7467 268.686 87.9561C267.754 86.8019 259.761 77.2513 264.589 72.3318C264.589 72.3318 270.471 82.8178 285.903 83.758L286.952 83.5485C286.772 82.7868 286.701 82.0031 286.742 81.2214C286.742 78.3021 287.904 75.5024 289.971 73.4381C292.038 71.3738 294.842 70.2141 297.765 70.2141C305.116 70.2141 306.691 74.4029 306.691 74.4029L311.939 71.2567C311.86 71.2939 311.333 76.5392 308.709 77.5865Z" fill="#535461"/>
<path d="M100.26 119.731L105.508 118.684C105.508 118.684 101.099 123.612 100.26 123.924C100.182 124.971 100.182 126.023 100.26 127.07C90.1788 170.267 53.0129 151.184 53.0129 151.184C66.5575 151.501 67.7134 145.943 67.7134 145.943C59.8365 144.789 58.2658 139.651 58.2658 139.651C58.9725 140.018 59.7891 140.114 60.5618 139.921C61.3345 139.728 62.0099 139.259 62.4606 138.604C53.9544 136.402 55.1103 128.118 55.1103 128.118C56.5785 129.374 58.8903 129.9 60.2373 130.11C59.3051 128.955 51.3117 119.405 56.1404 114.485C56.1404 114.485 62.0224 124.971 77.4546 125.912L78.5033 125.702C78.3228 124.94 78.2522 124.157 78.2936 123.375C78.2936 120.456 79.4549 117.656 81.5221 115.592C83.5893 113.527 86.3931 112.368 89.3166 112.368C96.6668 112.368 98.2422 116.557 98.2422 116.557L103.49 113.41C103.411 113.438 102.884 118.684 100.26 119.731Z" fill="#535461"/>
</g>
<defs>
<clipPath id="clip0">
<rect width="379" height="350" fill="white"/>
</clipPath>
</defs>
</svg>